<?xml version="1.0" standalone="no"?>
<!DOCTYPE svg PUBLIC "-//W3C//DTD SVG 1.1//EN" "http://www.w3.org/Graphics/SVG/1.1/DTD/svg11.dtd" >
<svg xmlns="http://www.w3.org/2000/svg" xmlns:xlink="http://www.w3.org/1999/xlink" version="1.1">
<metadata>
Created by FontForge 20170910 at Thu Sep  9 11:41:16 2010
 By Jimmy Wärting
Copyright (c) 2009 by . All rights reserved.
</metadata>
<defs>
<font id="MillerBanner-Semibold" horiz-adv-x="500" >
  <font-face 
    font-family="MillerBanner Semibold"
    font-weight="600"
    font-stretch="normal"
    units-per-em="1000"
    panose-1="2 0 5 3 8 0 0 2 0 3"
    ascent="764"
    descent="-236"
    x-height="457"
    cap-height="683"
    bbox="-154 -235 1195 940"
    underline-thickness="20"
    underline-position="-133"
    stemh="24"
    stemv="115"
    unicode-range="U+0020-FB04"
  />
<missing-glyph horiz-adv-x="218" 
 />
    <glyph glyph-name="f_f" unicode="ff" horiz-adv-x="615" 
d="M502 457h122v-16h-121v-379c0 -22 9 -38 27 -45c15 -6 41 -9 59 -10v-7h-260v7c17 1 27 4 38 10c15 7 21 21 21 42v382h-179v-379c0 -22 7 -36 22 -44c12 -6 24 -9 43 -11v-7h-250v7c18 1 30 3 44 7c18 7 26 23 26 45v382h-99v16h99v19c0 82 22 145 70 197
c35 37 91 67 158 67c77 0 115 -30 130 -63c39 46 98 70 160 70c91 0 121 -50 121 -95c0 -26 -23 -60 -64 -60c-29 0 -63 18 -63 56c0 28 11 44 14 69c-2 12 -16 18 -28 18c-58 0 -84 -62 -89 -205c0 -17 -1 -64 -1 -73zM398 576c-31 0 -57 19 -57 51c0 29 17 53 22 70
c-2 14 -18 32 -52 32c-55 0 -100 -67 -102 -212v-60h179v24c0 35 3 65 10 95z" />
    <glyph glyph-name="f_f_i" unicode="ffi" horiz-adv-x="874" 
d="M630 747c118 0 161 -49 161 -107c0 -26 -21 -65 -64 -65c-36 0 -63 21 -63 58c0 28 13 49 21 68c-1 14 -20 35 -66 35c-63 0 -114 -72 -117 -219v-60h150l136 8l4 -4v-399c0 -22 8 -38 26 -46c15 -6 28 -8 45 -9v-7h-247v7c19 1 29 3 40 9c15 7 21 22 21 43v332
c-1 21 -6 37 -18 50h-156v-380c0 -19 6 -33 18 -40c12 -10 31 -12 51 -14v-7h-243v7c17 1 27 4 38 10c15 7 21 21 21 42v382h-179v-379c0 -22 7 -36 22 -44c12 -6 24 -9 43 -11v-7h-250v7c18 1 30 3 44 7c18 7 26 23 26 45v382h-99v16h99v19c0 82 22 145 70 197
c35 37 91 67 158 67c77 0 117 -35 132 -68c34 41 100 75 176 75zM400 576c-31 0 -59 19 -59 51c0 29 17 53 22 70c-2 14 -18 32 -52 32c-55 0 -100 -67 -102 -212v-60h179v24c0 35 5 65 12 95z" />
    <glyph glyph-name="f_f_l" unicode="ffl" horiz-adv-x="876" 
d="M616 747c43 0 74 -9 98 -21l75 20l4 -4v-679c0 -22 9 -37 27 -45c14 -7 25 -10 43 -11v-7h-245v7c18 1 29 3 40 8c15 7 21 23 21 44v522c-15 6 -34 24 -34 52c0 32 22 47 29 59c-7 20 -19 44 -64 44c-57 0 -105 -57 -108 -205v-74h116v-16h-115v-380c0 -19 6 -33 18 -40
c12 -10 28 -12 48 -14v-7h-240v7c17 1 27 4 38 10c15 7 21 21 21 42v382h-179v-379c0 -22 7 -36 22 -44c12 -6 24 -9 43 -11v-7h-250v7c18 1 30 3 44 7c18 7 26 23 26 45v382h-99v16h99v19c0 82 22 145 70 197c35 37 91 67 158 67c77 0 116 -30 131 -68c39 46 100 75 163 75
zM400 575c-31 0 -59 20 -59 52c0 29 17 53 22 70c-2 14 -18 32 -52 32c-55 0 -100 -67 -102 -212v-60h179v24c0 35 4 68 12 94z" />
    <glyph glyph-name="f_j" unicode="fj" horiz-adv-x="570" 
d="M384 -3l1 389c0 23 -11 44 -28 55h-148v-379c0 -19 6 -32 18 -40c12 -9 29 -13 50 -15v-7h-253v7c18 1 30 3 44 7c18 7 26 23 26 45v382h-99v16h99v25c0 82 26 149 72 197c34 36 92 68 170 68c119 0 162 -49 162 -107c0 -26 -21 -65 -64 -65c-36 0 -63 21 -63 58
c0 28 12 49 20 68c0 14 -19 35 -65 35c-63 0 -115 -72 -117 -219v-60h151l136 8l4 -4v-418c0 -83 -14 -152 -63 -203c-40 -43 -84 -67 -144 -67c-84 0 -113 40 -113 83c0 25 23 60 61 60c28 0 62 -15 62 -54c0 -21 -11 -56 -14 -76c4 -1 17 -2 20 -2c58 0 75 66 75 213z" />
    <glyph glyph-name="f_i" unicode="fi" horiz-adv-x="582" 
d="M569 7v-7h-246v7c18 1 29 3 40 9c15 7 21 22 21 43v332c-2 21 -7 37 -19 50h-156v-379c0 -19 6 -32 18 -40c12 -9 29 -13 49 -15v-7h-252v7c18 1 30 3 44 7c18 7 26 23 26 45v382h-99v16h99v25c0 82 26 149 72 197c34 36 92 68 170 68c119 0 162 -49 162 -107
c0 -26 -21 -65 -64 -65c-36 0 -63 21 -63 58c0 28 12 49 20 68c0 14 -19 35 -65 35c-63 0 -115 -72 -117 -219v-60h150l136 8l4 -4v-399c0 -22 8 -38 26 -46c14 -6 27 -8 44 -9z" />
    <glyph glyph-name="f_l" unicode="fl" horiz-adv-x="582" 
d="M570 7v-7h-246v7c18 1 29 3 41 8c14 7 20 23 20 44v522c-15 6 -34 24 -34 52c0 32 22 47 29 59c-6 20 -19 44 -64 44c-56 0 -105 -57 -107 -205v-74h115v-16h-115v-379c0 -20 6 -35 22 -43c11 -6 27 -10 46 -12v-7h-253v7c18 1 30 3 44 7c18 7 26 23 26 45v382h-99v16h99
v25c0 82 23 146 72 198c34 36 88 67 156 67c43 0 74 -9 98 -21l76 20l4 -4v-679c0 -22 8 -37 26 -45c15 -7 26 -10 44 -11z" />
    <glyph glyph-name="f_t" unicode="ft" horiz-adv-x="646" 
d="M456 605h44v-148h132v-16h-132v-307c0 -49 15 -92 69 -92c45 0 67 49 71 89h11c-6 -76 -49 -142 -137 -142c-86 0 -128 51 -128 140v312h-177v-378c0 -21 9 -38 27 -45c15 -6 47 -10 65 -11v-7h-277v7c18 1 30 3 44 7c18 7 26 23 26 45v382h-99v16h99v30
c0 53 13 104 37 146c39 68 105 114 189 114c108 0 148 -52 148 -100c0 -15 -5 -30 -12 -42zM318 736c-58 0 -109 -57 -109 -202v-77h179v127c-26 7 -44 29 -44 55c-1 22 9 46 24 63c-1 13 -18 34 -50 34z" />
    <glyph glyph-name=".notdef" horiz-adv-x="218" 
 />
    <glyph glyph-name="exclam" unicode="!" horiz-adv-x="324" 
d="M157 217c-20 176 -66 349 -66 409c0 40 27 76 71 76s71 -36 71 -76c0 -60 -45 -232 -68 -409h-8zM161 -9c-41 0 -74 31 -74 73s33 75 74 75c42 0 75 -33 75 -75s-33 -73 -75 -73z" />
    <glyph glyph-name="quotedbl" unicode="&#x22;" horiz-adv-x="397" 
d="M162 677c0 -28 -38 -113 -58 -205h-10c-18 93 -55 175 -55 205c0 31 22 60 61 60s62 -29 62 -60zM358 677c0 -28 -38 -113 -58 -205h-10c-18 93 -55 175 -55 205c0 31 22 60 61 60s62 -29 62 -60z" />
    <glyph glyph-name="ampersand" unicode="&#x26;" horiz-adv-x="748" 
d="M504 178c43 59 80 155 80 198c0 22 -30 37 -99 49v6h281v-6c-57 -6 -99 -17 -126 -47s-72 -140 -128 -210c37 -45 89 -109 117 -126c35 -21 72 -32 114 -35v-7h-243c-9 10 -56 68 -66 81c-48 -49 -112 -97 -189 -97c-103 0 -200 50 -200 165c0 97 62 147 177 210
c-42 62 -80 130 -80 184c0 91 79 154 187 154c86 0 126 -60 126 -131c0 -59 -44 -115 -120 -161c56 -84 110 -153 169 -227zM329 415c62 39 80 93 80 153c0 65 -24 118 -78 118c-52 0 -74 -47 -74 -108c0 -44 28 -102 72 -163zM426 90c-65 84 -157 202 -196 258
c-42 -35 -59 -92 -59 -157c0 -89 46 -156 121 -156c50 0 103 20 134 55z" />
    <glyph glyph-name="quotesingle" unicode="'" horiz-adv-x="201" 
d="M162 677c0 -28 -38 -113 -58 -205h-10c-18 93 -55 175 -55 205c0 31 22 60 61 60s62 -29 62 -60z" />
    <glyph glyph-name="parenleft" unicode="(" horiz-adv-x="331" 
d="M314 -143l-28 -17c-134 97 -244 244 -244 456c0 199 100 342 243 452l26 -15c-142 -109 -233 -247 -233 -435c-1 -199 97 -341 236 -441z" />
    <glyph glyph-name="parenright" unicode=")" horiz-adv-x="331" 
d="M45 -160l-28 17c139 100 236 242 236 441c-1 188 -92 326 -234 435l27 15c142 -110 243 -253 243 -452c0 -212 -111 -359 -244 -456z" />
    <glyph glyph-name="comma" unicode="," horiz-adv-x="259" 
d="M211 22c0 -87 -82 -163 -152 -195l-5 10c61 33 103 93 109 164h-34c-64 0 -82 38 -82 73c0 32 25 68 69 68c67 0 95 -50 95 -120z" />
    <glyph glyph-name="hyphen" unicode="-" horiz-adv-x="376" 
d="M30 211v85h316v-85h-316z" />
    <glyph glyph-name="hyphen" unicode="&#xad;" horiz-adv-x="376" 
d="M30 211v85h316v-85h-316z" />
    <glyph glyph-name="period" unicode="." horiz-adv-x="259" 
d="M207 65c0 -43 -35 -76 -77 -76s-77 33 -77 76s35 77 77 77s77 -34 77 -77z" />
    <glyph glyph-name="zero" unicode="0" horiz-adv-x="619" 
d="M580 317c0 -205 -130 -332 -275 -332c-171 0 -264 142 -264 304c0 205 132 331 275 331c171 0 264 -139 264 -303zM445 304c0 160 -30 307 -133 307c-87 0 -136 -129 -136 -309c0 -166 30 -307 132 -307c88 0 137 129 137 309z" />
    <glyph glyph-name="one" unicode="1" horiz-adv-x="428" 
d="M400 7v-7h-338v7c18 1 56 5 78 12c20 6 33 22 33 44v484l-130 -8v8c52 7 80 11 132 24c56 13 91 27 120 45h9c-8 -45 -9 -98 -9 -158v-390c0 -27 11 -40 29 -48c15 -7 59 -12 76 -13z" />
    <glyph glyph-name="two" unicode="2" horiz-adv-x="566" 
d="M532 194l9 -3l-60 -191h-437v41c99 74 168 129 240 199c86 84 115 156 115 247c0 76 -34 123 -100 123c-101 0 -151 -117 -151 -196c0 -46 17 -79 59 -79c51 0 79 35 97 58l6 -5c-30 -51 -80 -96 -150 -96c-62 0 -109 39 -109 108c0 100 111 220 270 220
c115 0 199 -58 199 -158c0 -135 -122 -223 -341 -336l-35 -28h286c52 0 82 54 102 96z" />
    <glyph glyph-name="three" unicode="3" horiz-adv-x="561" 
d="M518 193c0 -139 -136 -219 -298 -219c-102 0 -201 44 -201 137c0 61 42 95 90 95c39 0 60 -24 60 -55c0 -52 -65 -57 -65 -94c0 -35 34 -74 111 -74c88 0 171 93 171 217c0 73 -20 117 -73 117c-37 0 -76 -35 -106 -63l-15 19c106 72 185 117 185 221
c0 66 -25 115 -87 115c-67 0 -124 -64 -124 -136c0 -40 17 -67 52 -67c26 0 51 19 66 34l5 -5c-22 -31 -79 -75 -116 -75c-67 0 -102 38 -102 88c0 93 115 172 251 172c129 0 184 -71 184 -132c0 -67 -57 -128 -199 -149l-16 -14c6 1 45 5 52 5c73 0 175 -29 175 -137z" />
    <glyph glyph-name="four" unicode="4" horiz-adv-x="581" 
d="M535 320v-207h-8c-1 24 -8 58 -21 74c-10 13 -32 20 -59 20h-45v-140c0 -21 10 -40 28 -48c15 -7 49 -11 67 -12v-7h-315v7c18 1 56 4 70 9c18 6 30 25 30 47v144h-264v13l336 409h48v-397h42c28 0 49 6 61 20c13 15 21 46 22 68h8zM49 232h233v281z" />
    <glyph glyph-name="five" unicode="5" horiz-adv-x="528" 
d="M496 623l5 -5c-69 -121 -207 -144 -280 -144c-23 0 -79 2 -85 3l-38 -161c32 29 74 68 167 68c116 0 215 -60 215 -188c0 -132 -119 -210 -262 -210c-111 0 -193 47 -193 123c0 55 41 74 71 74c35 0 58 -24 58 -54c0 -39 -23 -54 -29 -85c4 -25 36 -50 92 -50
c90 0 131 116 131 226c0 95 -42 149 -114 149c-52 0 -118 -36 -145 -92l-13 3l76 337h11c14 -16 82 -39 160 -39c70 0 129 11 173 45z" />
    <glyph glyph-name="six" unicode="6" horiz-adv-x="571" 
d="M534 591c0 -39 -20 -62 -60 -62c-59 0 -63 52 -75 111c-8 33 -19 45 -48 45c-84 0 -154 -154 -176 -343l5 -2c39 60 94 89 162 89c94 0 182 -81 182 -211c0 -98 -57 -233 -248 -233c-125 0 -228 105 -228 291c0 235 163 424 342 424c109 0 144 -67 144 -109zM392 217
c0 106 -30 184 -106 184c-61 0 -114 -68 -114 -204c0 -120 40 -202 107 -202c101 0 113 142 113 222z" />
    <glyph glyph-name="seven" unicode="7" horiz-adv-x="497" 
d="M515 595v-10c-73 -101 -107 -161 -154 -275c-37 -91 -64 -188 -72 -330c-4 -62 -27 -100 -75 -100c-38 0 -62 21 -62 76s50 168 114 274c60 99 99 159 172 260h-289c-56 0 -86 -50 -109 -114l-10 3l63 272h7l12 -56h403z" />
    <glyph glyph-name="eight" unicode="8" horiz-adv-x="561" 
d="M516 185c0 -123 -120 -201 -254 -201c-125 0 -215 64 -215 151c0 77 76 126 142 151c-86 40 -121 84 -121 158c0 103 107 182 220 182c120 0 200 -57 200 -142c0 -53 -50 -102 -122 -133c84 -36 150 -77 150 -166zM420 129c0 58 -46 92 -121 118l-97 34
c-39 -29 -66 -79 -66 -145c0 -71 43 -140 141 -140c87 0 143 62 143 133zM409 485c0 67 -40 130 -125 130c-88 0 -124 -62 -124 -116c0 -49 35 -82 95 -107c29 -13 66 -26 98 -35c39 24 56 68 56 128z" />
    <glyph glyph-name="nine" unicode="9" horiz-adv-x="571" 
d="M522 325c0 -230 -141 -428 -350 -428c-101 0 -150 54 -150 106c0 40 24 64 66 64c56 0 56 -62 68 -108c11 -35 27 -48 54 -48c105 0 169 177 186 351l-5 1c-36 -50 -89 -86 -161 -86c-96 0 -183 76 -183 210c0 105 69 233 241 233c119 0 234 -85 234 -295zM400 403
c0 126 -49 207 -113 207c-97 0 -108 -130 -108 -211c0 -116 33 -191 107 -191c56 0 114 54 114 195z" />
    <glyph glyph-name="colon" unicode=":" horiz-adv-x="288" 
d="M144 -9c-41 0 -75 31 -75 73s34 75 75 75c40 0 74 -33 74 -75s-34 -73 -74 -73zM144 310c-41 0 -75 33 -75 74c0 42 34 75 75 75c40 0 74 -33 74 -75c0 -41 -34 -74 -74 -74z" />
    <glyph glyph-name="semicolon" unicode=";" horiz-adv-x="288" 
d="M73 -176l-3 8c61 34 101 97 106 170h-33c-60 0 -78 36 -78 70c0 31 26 66 68 66c63 0 92 -46 92 -114c0 -97 -91 -171 -152 -200zM144 310c-41 0 -75 33 -75 74c0 42 34 75 75 75c40 0 74 -33 74 -75c0 -41 -34 -74 -74 -74z" />
    <glyph glyph-name="question" unicode="?" horiz-adv-x="492" 
d="M447 501c0 -121 -94 -208 -242 -218l-6 -90h-11l-1 186c92 11 148 50 148 151c0 105 -40 158 -109 158c-30 0 -62 -13 -74 -28c7 -20 22 -42 22 -79c0 -42 -34 -66 -66 -66c-44 0 -64 30 -64 69c0 58 76 115 186 115c136 0 217 -80 217 -198zM274 63
c0 -42 -34 -75 -76 -75s-76 33 -76 75s34 76 76 76s76 -34 76 -76z" />
    <glyph glyph-name="A" unicode="A" horiz-adv-x="681" 
d="M710 7v-7h-340v7c35 2 103 9 106 34c1 8 -1 18 -4 24l-69 183h-237c-13 -33 -45 -117 -52 -139c-7 -24 -14 -48 -14 -61c0 -36 86 -39 121 -41v-7h-250v7c18 1 41 4 59 15c24 15 42 44 57 79c54 129 186 449 243 593h35c78 -195 218 -553 247 -624c8 -20 16 -37 40 -50
c17 -9 39 -12 58 -13zM172 264h224l-110 282z" />
    <glyph glyph-name="B" unicode="B" horiz-adv-x="672" 
d="M636 183c0 -133 -125 -183 -262 -183h-345v7c18 1 62 6 75 11c24 9 31 27 31 49v545c0 22 -7 41 -31 51c-20 8 -56 12 -73 13v7h349c111 0 220 -35 220 -144c0 -105 -83 -148 -187 -167v-9c95 -4 223 -55 223 -180zM456 524c0 93 -59 147 -125 147c-15 0 -45 0 -63 -1
v-302h42c105 0 146 72 146 156zM488 196c0 88 -55 160 -156 160c-15 0 -51 -2 -64 -3v-289c6 -36 28 -53 84 -53c98 0 136 97 136 185z" />
    <glyph glyph-name="C" unicode="C" horiz-adv-x="653" 
d="M630 182l13 -6c-43 -99 -128 -191 -277 -191c-194 0 -336 133 -336 348c0 211 150 365 354 365c81 0 148 -26 185 -52l33 47h10l4 -251h-10c-44 140 -123 242 -234 242c-124 0 -192 -128 -192 -338c0 -194 75 -324 219 -324c113 0 186 68 231 160z" />
    <glyph glyph-name="D" unicode="D" horiz-adv-x="770" 
d="M348 0h-316v7c24 1 59 5 72 10c24 8 31 25 31 47v549c0 22 -7 42 -31 51c-20 8 -48 11 -70 12v7h331c140 0 376 -72 376 -346c0 -233 -196 -337 -393 -337zM268 670v-587c3 -47 31 -71 96 -71c157 0 225 132 225 326c0 197 -95 334 -245 334c-21 0 -56 -1 -76 -2z" />
    <glyph glyph-name="E" unicode="E" horiz-adv-x="661" 
d="M634 0h-605v7c23 1 61 6 75 11c24 8 31 25 31 47v548c0 22 -6 41 -31 50c-18 7 -53 12 -75 13v7h565v-166h-10c-13 45 -77 144 -124 150c-24 3 -63 5 -94 5h-98v-312h84c56 0 74 18 86 31c18 17 38 75 42 101h10v-281h-10c-3 30 -28 91 -42 106c-13 15 -32 31 -86 31h-84
v-248c0 -78 17 -88 113 -88c63 0 130 -1 154 23c35 36 88 132 103 165h9z" />
    <glyph glyph-name="F" unicode="F" horiz-adv-x="610" 
d="M601 683v-171h-9c-14 45 -76 143 -123 154c-23 5 -63 6 -94 6h-107v-315h84c53 0 76 17 89 29c17 17 38 70 43 103h10v-284h-10c-5 30 -24 90 -43 110c-14 14 -39 30 -89 30h-84v-278c0 -22 8 -39 31 -49c12 -5 56 -10 74 -11v-7h-347v7c18 1 65 5 78 10
c24 9 31 27 31 49v547c0 22 -6 40 -31 50c-19 8 -60 12 -78 13v7h575z" />
    <glyph glyph-name="G" unicode="G" horiz-adv-x="742" 
d="M751 303v-8c-19 -3 -47 -4 -65 -12c-24 -10 -30 -29 -30 -51v-247l-8 -3l-60 63c-71 -34 -153 -60 -240 -60c-161 0 -318 116 -318 344c0 213 157 369 371 369c80 0 156 -27 194 -53l34 48h10l4 -246h-10c-42 129 -126 237 -247 237c-137 0 -205 -135 -205 -343
c0 -201 71 -341 199 -341c91 0 138 48 151 107v117c0 26 -7 47 -33 57c-23 9 -69 13 -86 14v8h339z" />
    <glyph glyph-name="H" unicode="H" horiz-adv-x="844" 
d="M810 7v-7h-335v7c18 1 58 5 71 10c24 8 31 25 31 47v283h-309v-279c0 -22 8 -41 31 -50c12 -5 50 -10 71 -11v-7h-336v7c23 1 57 5 70 10c24 8 31 25 31 47v549c0 22 -7 41 -31 50c-17 6 -48 12 -70 13v7h336v-7c-18 -1 -54 -6 -71 -11c-25 -8 -31 -27 -31 -49v-253h309
v250c0 22 -8 41 -31 50c-17 7 -53 12 -71 13v7h335v-7c-21 -1 -52 -6 -69 -11c-25 -7 -31 -27 -31 -49v-548c0 -22 7 -41 31 -50c12 -5 48 -10 69 -11z" />
    <glyph glyph-name="I" unicode="I" horiz-adv-x="406" 
d="M270 616v-548c0 -22 8 -41 31 -50c12 -5 51 -10 72 -11v-7h-339v7c22 1 59 5 72 10c24 8 31 25 31 47v549c0 22 -7 41 -31 50c-17 6 -51 12 -72 13v7h339v-7c-18 -1 -55 -6 -72 -11c-25 -8 -31 -27 -31 -49z" />
    <glyph glyph-name="J" unicode="J" horiz-adv-x="508" 
d="M492 683v-7c-18 -1 -55 -5 -73 -11c-25 -8 -31 -27 -31 -49v-420c0 -105 -93 -213 -234 -213c-115 0 -158 53 -158 108c0 48 32 81 81 81c47 0 75 -31 75 -77c0 -40 -26 -71 -65 -86v-5c10 -5 33 -9 43 -9c108 0 125 76 125 193v424c0 22 -7 39 -31 50
c-20 9 -59 13 -79 14v7h347z" />
    <glyph glyph-name="K" unicode="K" horiz-adv-x="751" 
d="M780 7v-7h-369v7c41 3 81 8 81 42c0 33 -124 190 -208 286h-16v-266c0 -22 8 -40 30 -50c12 -5 49 -11 68 -12v-7h-332v7c18 1 57 5 70 10c24 9 31 24 31 46v550c0 22 -7 40 -31 50c-17 7 -52 12 -70 13v7h335v-7c-17 -1 -53 -6 -70 -11c-25 -8 -31 -27 -31 -49v-268h13
c128 107 269 249 269 293c0 26 -63 32 -93 35v7h270v-7c-42 -3 -99 -10 -143 -54c-82 -83 -127 -132 -206 -202c90 -101 169 -211 256 -326c18 -24 44 -56 80 -73c18 -8 48 -13 66 -14z" />
    <glyph glyph-name="L" unicode="L" horiz-adv-x="625" 
d="M623 204h8l-13 -204h-588v7c17 1 60 5 74 11c24 9 31 27 31 49v546c0 22 -6 39 -31 50c-18 8 -56 12 -74 13v7h341v-7c-18 -1 -54 -2 -72 -8c-25 -8 -31 -28 -31 -50v-517c0 -80 18 -89 113 -89c61 0 116 2 138 24c31 32 87 129 104 168z" />
    <glyph glyph-name="M" unicode="M" horiz-adv-x="940" 
d="M908 7v-7h-352v7c17 1 69 5 83 12c23 12 32 28 32 51v557l-252 -616h-18c-10 31 -35 103 -51 139l-202 462v-453c0 -77 11 -113 33 -132c17 -14 83 -19 101 -20v-7h-274v7c17 2 68 2 92 19c23 17 32 56 32 132v410c0 41 -10 69 -30 85c-24 19 -62 22 -89 23v7h243
l219 -492l167 407c15 36 21 74 22 85h243v-7c-18 -1 -55 -6 -73 -12c-25 -8 -31 -27 -31 -49v-545c0 -22 8 -38 31 -49c11 -6 55 -13 74 -14z" />
    <glyph glyph-name="N" unicode="N" horiz-adv-x="754" 
d="M762 683v-7c-17 -2 -69 -5 -92 -22c-24 -17 -32 -74 -32 -143v-516h-30l-460 584v-410c0 -83 11 -121 33 -138c19 -15 81 -23 98 -24v-7h-271v7c17 2 73 8 92 22c23 18 32 60 32 137v395c0 30 -13 64 -34 83c-23 20 -66 27 -98 31v8h228l394 -498v325
c0 74 -11 125 -34 144c-20 16 -77 21 -98 22v7h272z" />
    <glyph glyph-name="O" unicode="O" horiz-adv-x="768" 
d="M737 346c0 -107 -34 -202 -108 -270c-63 -60 -145 -92 -249 -92c-93 0 -179 33 -244 94s-106 147 -106 256c0 114 38 204 105 268s153 97 249 97c94 0 181 -30 251 -97c63 -60 102 -150 102 -256zM586 343c0 174 -51 344 -202 344c-129 0 -202 -130 -202 -348
c0 -190 60 -343 202 -343c141 0 202 150 202 347z" />
    <glyph glyph-name="P" unicode="P" horiz-adv-x="625" 
d="M607 517c0 -142 -136 -210 -276 -210h-63v-239c0 -22 7 -41 31 -50c12 -5 51 -10 76 -11v-7h-345v7c18 1 61 6 74 11c24 9 31 27 31 49v546c0 22 -6 41 -31 50c-22 8 -58 12 -76 13v7h347c141 0 232 -57 232 -166zM458 493c0 87 -31 177 -138 177h-52v-349h35
c128 0 155 105 155 172z" />
    <glyph glyph-name="Q" unicode="Q" horiz-adv-x="772" 
d="M822 -9l8 -4c-20 -56 -91 -154 -200 -154c-88 0 -164 44 -186 160c-21 -5 -43 -8 -64 -8c-92 0 -178 31 -243 92c-66 62 -107 148 -107 257c0 111 36 199 101 264c66 67 155 101 253 101c95 0 182 -31 253 -99c62 -59 100 -150 100 -254c0 -132 -58 -244 -178 -311
c24 -95 88 -126 144 -126c59 0 103 40 119 82zM586 343c0 176 -52 344 -202 344c-129 0 -202 -133 -202 -348c0 -88 14 -179 48 -238c33 83 94 118 149 118c71 0 134 -51 160 -139c36 64 47 165 47 263zM441 5c-15 121 -40 177 -99 177c-31 0 -80 -22 -106 -93
c38 -60 88 -91 148 -91c21 0 41 4 57 7z" />
    <glyph glyph-name="R" unicode="R" horiz-adv-x="734" 
d="M739 158v-22c0 -88 -37 -147 -137 -147c-84 0 -126 48 -141 167c-11 93 -31 181 -135 181h-58v-270c0 -22 7 -40 31 -49c12 -5 53 -10 71 -11v-7h-340v7c18 1 61 6 74 11c24 9 31 26 31 49v546c0 22 -6 41 -31 50c-18 7 -56 12 -74 13v7h357c126 0 234 -46 234 -155
s-103 -158 -194 -177v-8c63 -6 138 -31 158 -104c15 -55 21 -102 33 -150c10 -39 32 -46 48 -46c31 0 60 32 60 94v21h13zM472 509c0 109 -58 161 -141 161h-63v-319h41c88 0 163 43 163 158z" />
    <glyph glyph-name="S" unicode="S" horiz-adv-x="558" 
d="M527 197c0 -122 -101 -211 -242 -211c-101 0 -168 32 -201 54l-33 -49h-10l-6 242h9c49 -128 121 -234 237 -234c95 0 135 67 135 139c0 60 -40 105 -107 130c-51 20 -91 33 -136 52c-81 35 -120 98 -120 185c0 107 88 193 218 193c79 0 145 -25 179 -50l31 45h10l4 -232
h-9c-38 117 -98 224 -213 224c-63 0 -116 -48 -116 -119c0 -60 33 -99 102 -130c45 -21 94 -34 133 -51c82 -37 135 -82 135 -188z" />
    <glyph glyph-name="T" unicode="T" horiz-adv-x="631" 
d="M628 683v-179h-9c-12 44 -73 157 -116 163c-23 3 -52 4 -77 4h-44v-601c0 -22 8 -40 31 -50c12 -5 63 -12 81 -13v-7h-357v7c18 1 68 6 81 11c24 9 31 28 31 50v603h-43c-23 0 -55 -1 -77 -4c-43 -6 -105 -119 -117 -163h-9v179h625z" />
    <glyph glyph-name="U" unicode="U" horiz-adv-x="774" 
d="M775 683v-7c-21 -1 -71 -7 -92 -22c-25 -17 -32 -62 -32 -133v-309c0 -163 -137 -228 -255 -228c-180 0 -274 95 -274 218v412c0 22 -8 38 -31 50c-18 9 -54 11 -69 12v7h336v-7c-18 -1 -54 -6 -71 -11c-25 -8 -31 -27 -31 -49v-412c0 -101 37 -182 171 -182
c135 0 208 86 208 194v301c0 78 -12 119 -34 135c-26 18 -77 23 -97 24v7h271z" />
    <glyph glyph-name="V" unicode="V" horiz-adv-x="673" 
d="M703 683v-7c-20 -1 -37 -6 -55 -14c-28 -14 -43 -47 -57 -80c-31 -72 -183 -441 -243 -590h-34c-78 213 -203 521 -239 615c-11 29 -21 45 -44 56c-18 7 -36 11 -59 13v7h335v-7c-63 -5 -100 -13 -100 -32c-1 -7 2 -17 5 -25c23 -68 118 -302 181 -472
c48 111 134 326 159 390c17 42 25 77 25 94c0 31 -51 40 -117 45v7h243z" />
    <glyph glyph-name="W" unicode="W" horiz-adv-x="992" 
d="M1021 683v-7c-19 -1 -39 -6 -59 -17c-26 -15 -43 -51 -57 -88c-34 -92 -154 -427 -208 -579h-42c-48 155 -128 401 -160 496l-182 -496h-41c-60 194 -176 546 -197 615c-6 21 -16 40 -37 53c-18 11 -40 15 -59 16v7h323v-7c-35 -2 -96 -11 -96 -34c0 -6 3 -22 5 -29
c10 -34 92 -287 146 -455l131 357c-11 40 -34 124 -66 144c-17 11 -46 16 -65 17v7h326v-7c-34 -2 -100 -10 -100 -34c0 -7 2 -21 5 -29c10 -32 96 -289 152 -455c43 117 111 311 129 372c15 49 22 80 22 97c0 35 -71 46 -117 49v7h247z" />
    <glyph glyph-name="X" unicode="X" horiz-adv-x="754" 
d="M766 7v-7h-392v7c59 3 112 12 112 40c0 15 -23 56 -57 108c-24 36 -72 107 -95 140c-35 -43 -81 -98 -117 -145c-34 -45 -67 -91 -67 -105c0 -28 54 -34 108 -38v-7h-267v7c22 1 45 5 64 13c38 16 70 49 91 74c51 61 124 148 178 216c-52 73 -151 223 -193 280
c-17 25 -42 58 -75 73c-15 7 -38 11 -63 13v7h392v-7c-59 -3 -113 -9 -113 -36c0 -18 31 -74 67 -128c18 -26 56 -83 75 -109c39 48 76 93 105 133c37 50 61 87 61 103c0 28 -55 33 -109 37v7h268v-7c-23 -1 -49 -6 -64 -13c-36 -16 -67 -46 -90 -74
c-39 -46 -108 -132 -161 -199c65 -91 171 -250 206 -297c19 -27 41 -58 74 -74c15 -7 38 -10 62 -12z" />
    <glyph glyph-name="Y" unicode="Y" horiz-adv-x="657" 
d="M683 683v-7c-17 -2 -36 -7 -48 -14c-27 -15 -42 -33 -60 -62c-47 -73 -97 -161 -150 -257c-29 -54 -32 -76 -32 -130v-144c0 -22 8 -40 30 -50c12 -5 64 -11 81 -12v-7h-357v7c18 1 68 5 81 10c24 9 31 28 31 50v174c0 31 -8 52 -28 90c-36 70 -110 204 -143 260
c-18 30 -38 56 -62 70c-18 10 -41 14 -60 15v7h353v-7c-35 -2 -104 -9 -104 -31c0 -7 18 -47 46 -99c24 -43 85 -158 128 -232c40 68 90 155 125 219c30 55 46 90 46 101c0 30 -66 39 -111 42v7h234z" />
    <glyph glyph-name="Z" unicode="Z" horiz-adv-x="626" 
d="M612 213h10l-23 -213h-599v11l457 660h-173c-43 0 -70 -2 -90 -9c-43 -11 -111 -104 -145 -171h-10l21 192h550v-11l-457 -660h191c82 0 132 7 152 28c41 42 94 125 116 173z" />
    <glyph glyph-name="grave" unicode="`" 
d="M343 533l-5 -5c-75 55 -120 82 -152 104s-49 36 -49 66c0 22 19 44 49 44c29 0 47 -16 68 -51c23 -37 46 -83 89 -158z" />
    <glyph glyph-name="a" unicode="a" horiz-adv-x="496" 
d="M499 125h11c-4 -89 -39 -136 -113 -136c-55 0 -83 24 -101 66h-3c-34 -39 -77 -68 -145 -68c-69 0 -119 44 -119 109c0 84 48 109 98 128c59 22 133 38 167 58v69c0 25 -1 109 -72 109c-33 0 -51 -14 -59 -24c1 -22 16 -57 16 -83c0 -22 -26 -50 -69 -50
c-41 0 -57 31 -57 60c0 61 95 107 175 107c103 0 183 -16 183 -149c0 -90 -6 -203 -6 -236c0 -15 13 -49 42 -49c32 0 50 42 52 89zM291 71l4 196c-90 -31 -144 -63 -144 -150c0 -59 24 -87 60 -87s61 14 80 41z" />
    <glyph glyph-name="b" unicode="b" horiz-adv-x="551" 
d="M524 226c0 -139 -104 -240 -227 -240c-83 0 -136 34 -164 54l-59 -58l-8 2c3 40 5 111 5 183v494c-1 28 -9 44 -27 55c-12 8 -43 11 -65 12v7l204 11l4 -4v-334l3 -1c23 25 69 63 131 63c115 0 203 -88 203 -244zM396 223c0 110 -30 209 -119 209c-40 0 -68 -17 -90 -44
v-308c10 -31 36 -84 95 -84c72 0 114 94 114 227z" />
    <glyph glyph-name="c" unicode="c" horiz-adv-x="440" 
d="M429 123l11 -7c-34 -72 -105 -129 -189 -129c-152 0 -225 104 -225 243c0 125 85 240 231 240c108 0 161 -53 161 -117c0 -36 -25 -63 -66 -63c-32 0 -63 19 -63 59c0 32 23 62 25 79c-4 19 -27 31 -57 31c-60 0 -105 -71 -105 -220c0 -131 51 -210 130 -210
c70 0 117 34 147 94z" />
    <glyph glyph-name="d" unicode="d" horiz-adv-x="565" 
d="M566 15v-6l-193 -12l-5 6v44l-4 1c-22 -23 -69 -61 -131 -61c-116 0 -207 96 -207 247c0 139 107 236 223 236c59 0 103 -20 118 -26v215c-2 28 -10 43 -26 54c-15 9 -61 14 -87 16v6l222 11l5 -5v-663c2 -22 10 -38 26 -49c12 -8 41 -13 59 -14zM367 67v310
c-10 32 -37 80 -97 80c-74 0 -116 -98 -116 -233c0 -103 30 -202 123 -202c41 0 66 17 90 45z" />
    <glyph glyph-name="e" unicode="e" horiz-adv-x="462" 
d="M443 121l9 -6c-36 -73 -106 -128 -197 -128c-157 0 -229 110 -229 244c0 124 79 239 220 239c144 0 196 -92 196 -192v-8h-292v-22c0 -124 36 -222 143 -222c70 0 113 30 150 95zM150 281l169 2c0 79 -9 176 -77 176c-55 0 -89 -75 -92 -178z" />
    <glyph glyph-name="f" unicode="f" horiz-adv-x="322" 
d="M439 652c0 -26 -23 -60 -63 -60c-29 0 -64 18 -64 56c0 28 12 44 14 69c-2 12 -15 18 -27 18c-58 0 -84 -62 -89 -205c-1 -17 -1 -64 -1 -73h124v-16h-124v-378c0 -21 9 -38 27 -45c15 -6 47 -10 65 -11v-7h-277v7c18 1 30 3 44 7c18 7 26 23 26 45v382h-99v16h99v25
c0 82 19 148 68 200c42 44 96 65 157 65c90 0 120 -50 120 -95z" />
    <glyph glyph-name="g" unicode="g" horiz-adv-x="505" 
d="M514 456c0 -31 -18 -52 -46 -52c-32 0 -47 20 -52 60c-24 -2 -40 -15 -50 -29v-5c34 -28 54 -67 54 -115c0 -88 -90 -143 -182 -143h-72c-15 -9 -29 -20 -29 -38c0 -45 55 -42 106 -44l120 -6c60 -3 133 -51 133 -140c0 -96 -81 -171 -260 -171c-163 0 -226 47 -226 123
c0 55 58 96 164 99v6c-48 12 -112 38 -112 94c0 53 58 72 97 84v5c-77 27 -121 75 -121 136c0 99 96 150 193 150c66 0 116 -23 131 -27c31 41 58 63 102 63c25 0 50 -21 50 -50zM407 -88c0 23 -10 57 -52 71c-20 3 -89 6 -169 6c-49 -13 -80 -40 -80 -97
c0 -51 39 -108 150 -108c95 0 151 53 151 128zM305 319c0 69 -19 140 -77 140c-57 0 -72 -65 -72 -137c0 -83 23 -141 73 -141c54 0 76 60 76 138z" />
    <glyph glyph-name="h" unicode="h" horiz-adv-x="578" 
d="M197 746l4 -4v-354h2c37 37 73 82 158 82c95 0 137 -63 137 -158v-252c0 -22 5 -37 23 -45c14 -6 27 -7 45 -8v-7h-249v7c16 1 30 3 42 7c17 6 22 23 22 45v262c0 69 -35 100 -74 100c-60 0 -95 -34 -106 -56v-304c0 -22 6 -38 21 -45c14 -7 29 -8 44 -9v-7h-249v7
c17 1 30 3 43 7c19 6 26 20 26 42v605c-1 23 -10 43 -25 54c-12 8 -52 13 -69 14v6z" />
    <glyph glyph-name="i" unicode="i" horiz-adv-x="291" 
d="M216 656c0 -41 -32 -74 -74 -74c-40 0 -73 32 -73 72c0 41 33 73 73 73c42 0 74 -31 74 -71zM282 7v-7h-258v7c18 1 30 2 44 7c18 6 26 23 26 44v323c-1 21 -10 41 -26 52c-12 8 -41 12 -59 13v6l196 11l4 -4v-399c0 -21 7 -36 25 -45c15 -7 32 -7 48 -8z" />
    <glyph glyph-name="j" unicode="j" horiz-adv-x="293" 
d="M227 656c0 -41 -32 -74 -73 -74c-40 0 -73 32 -73 72c0 41 33 73 73 73c42 0 73 -31 73 -71zM218 463l4 -4v-416c0 -83 -14 -152 -63 -203c-40 -43 -84 -67 -143 -67c-85 0 -114 40 -114 83c0 25 23 60 61 60c28 0 62 -15 62 -54c0 -21 -11 -56 -14 -76c4 -1 17 -2 20 -2
c58 0 75 66 75 213v380c-1 21 -10 42 -26 53c-14 9 -56 13 -83 15v7z" />
    <glyph glyph-name="k" unicode="k" horiz-adv-x="540" 
d="M197 746l4 -4v-516c42 41 129 123 172 173c7 8 12 18 12 25c0 15 -41 22 -74 26v7h203v-6c-55 -11 -85 -28 -126 -62c-24 -21 -53 -49 -83 -80c101 -48 145 -169 187 -263c7 -15 16 -25 33 -31c16 -6 31 -9 37 -9v-6h-184c-20 77 -87 228 -146 228c-12 0 -24 -8 -31 -15
v-152c0 -22 6 -38 21 -45c14 -7 29 -8 44 -9v-7h-249v7c17 1 30 3 43 7c19 6 26 20 26 42v605c-1 23 -10 43 -25 54c-12 8 -52 13 -69 14v6z" />
    <glyph glyph-name="l" unicode="l" horiz-adv-x="283" 
d="M270 7v-7h-255v7c17 1 30 2 43 6c19 7 27 23 27 45v602c-1 23 -11 44 -27 55c-12 8 -51 13 -69 14v6l207 11l4 -4v-680c0 -22 8 -39 26 -47c15 -6 26 -7 44 -8z" />
    <glyph glyph-name="m" unicode="m" horiz-adv-x="871" 
d="M204 463l4 -4v-71h3c38 38 73 82 156 82c62 0 106 -33 128 -86h3c38 44 83 86 162 86c91 0 131 -67 131 -159v-251c0 -22 6 -37 24 -45c14 -6 27 -7 44 -8v-7h-246v7c17 1 29 3 41 7c16 7 21 23 21 45v260c0 67 -30 103 -72 103c-58 0 -92 -33 -103 -54v-306
c0 -22 6 -38 22 -46c12 -6 24 -8 40 -9v-7h-238v7c15 1 27 3 39 7c16 7 21 23 21 45v262c0 68 -31 100 -71 100c-59 0 -94 -35 -105 -56v-304c0 -22 6 -38 22 -45c14 -7 27 -8 43 -9v-7h-249v7c17 1 30 3 43 7c19 6 26 20 26 42v323c-1 23 -10 43 -25 53
c-12 8 -33 13 -50 14v6z" />
    <glyph glyph-name="n" unicode="n" horiz-adv-x="585" 
d="M573 7v-7h-249v7c16 1 31 3 43 7c17 6 22 23 22 45v262c0 69 -35 100 -74 100c-60 0 -96 -34 -107 -56v-304c0 -22 6 -38 22 -45c14 -7 28 -8 44 -9v-7h-250v7c17 1 30 3 43 7c19 6 26 20 26 42v323c-1 23 -10 43 -25 53c-12 8 -33 13 -50 14v6l186 11l4 -4v-71h3
c37 37 73 82 158 82c95 0 136 -63 136 -158v-252c0 -22 6 -37 24 -45c14 -6 26 -7 44 -8z" />
    <glyph glyph-name="o" unicode="o" horiz-adv-x="528" 
d="M503 232c0 -135 -85 -246 -243 -246c-127 0 -235 91 -235 241c0 143 95 243 241 243c147 0 237 -101 237 -238zM375 232c0 115 -23 227 -109 227c-93 0 -112 -119 -112 -225c0 -125 23 -238 111 -238c84 0 110 110 110 236z" />
    <glyph glyph-name="p" unicode="p" horiz-adv-x="566" 
d="M297 -226h-294v7c19 1 42 4 55 8c19 6 26 25 26 46v545c-1 23 -9 41 -25 52c-12 8 -36 13 -53 14v6l188 11l4 -5v-52l4 -1c23 25 69 65 133 65c114 0 201 -96 201 -241c0 -142 -102 -241 -222 -241c-56 0 -88 14 -111 31h-4v-178c0 -24 10 -40 28 -47
c19 -7 50 -12 70 -13v-7zM199 386v-310c10 -32 37 -76 96 -76c77 0 114 91 114 224c0 107 -31 205 -120 205c-43 0 -68 -17 -90 -43z" />
    <glyph glyph-name="q" unicode="q" horiz-adv-x="551" 
d="M568 -219v-7h-285v7c17 1 43 4 57 8c20 7 27 25 27 47v210l-4 1c-22 -23 -67 -59 -130 -59c-118 0 -207 95 -207 246c0 139 109 236 236 236c78 0 129 -29 160 -46l61 57l6 -1c-2 -40 -8 -121 -8 -167v-475c0 -22 9 -39 27 -47c16 -7 42 -8 60 -10zM367 68v311
c-10 33 -36 79 -96 79c-76 0 -117 -100 -117 -233c0 -101 28 -202 121 -202c41 0 68 17 92 45z" />
    <glyph glyph-name="r" unicode="r" horiz-adv-x="414" 
d="M417 393c0 -41 -25 -73 -64 -73c-37 0 -63 20 -63 58c0 18 9 37 14 52c-45 -1 -85 -43 -96 -62v-307c0 -22 10 -38 27 -45s49 -8 66 -9v-7h-277v7c17 1 29 2 43 7c19 6 26 22 26 44v322c-1 20 -11 42 -26 53c-12 8 -32 12 -50 13v6l187 11l4 -4v-71h2c42 54 88 80 133 80
c43 0 74 -32 74 -75z" />
    <glyph glyph-name="s" unicode="s" horiz-adv-x="406" 
d="M381 134c0 -94 -79 -148 -179 -148c-64 0 -125 26 -144 43l-20 -34h-9l-5 163h8c20 -54 88 -162 169 -162c62 0 92 40 92 88c0 52 -29 74 -122 103c-65 20 -134 58 -134 147c0 75 61 136 163 136c51 0 98 -12 124 -27l19 28h9l6 -147h-8c-26 65 -79 136 -144 136
c-55 0 -79 -43 -79 -80c0 -55 33 -69 118 -97c81 -26 136 -67 136 -149z" />
    <glyph glyph-name="t" unicode="t" horiz-adv-x="344" 
d="M338 131h11c-6 -76 -49 -142 -137 -142c-86 0 -128 51 -128 140v312h-91v16h93v148h112v-148h132v-16h-132v-307c0 -49 15 -92 69 -92c45 0 67 49 71 89z" />
    <glyph glyph-name="u" unicode="u" horiz-adv-x="569" 
d="M559 15v-6l-182 -12l-7 7v62h-3c-36 -38 -73 -78 -158 -78c-92 0 -129 69 -129 163v230c-1 21 -9 41 -26 51c-12 7 -32 12 -50 13v6l187 12l5 -6v-329c0 -68 30 -100 69 -100c63 0 93 40 104 60v295c-1 21 -8 40 -24 50c-11 7 -37 10 -62 11v7l196 12l5 -6v-381
c1 -22 8 -39 24 -49c12 -8 34 -11 51 -12z" />
    <glyph glyph-name="v" unicode="v" horiz-adv-x="462" 
d="M487 457v-6c-29 -5 -51 -14 -69 -55c-31 -68 -88 -206 -121 -288c-14 -36 -27 -71 -40 -115h-33l-178 408c-12 28 -29 45 -66 49v7h247v-9c-27 -1 -62 -5 -62 -21c0 -2 2 -10 6 -21c19 -45 81 -199 119 -280c28 66 75 184 103 255c4 9 8 25 7 35c-2 22 -46 30 -80 35v6
h167z" />
    <glyph glyph-name="w" unicode="w" horiz-adv-x="712" 
d="M743 457v-6c-28 -4 -60 -21 -75 -60c-25 -60 -87 -221 -112 -284c-15 -38 -27 -70 -40 -114h-36c-34 94 -83 231 -115 313c-18 -40 -58 -146 -78 -199c-14 -37 -26 -71 -39 -114h-37c-53 134 -117 298 -162 407c-12 31 -30 46 -66 50v7h236v-9c-21 -1 -54 -5 -54 -21
c0 -2 2 -10 6 -21c15 -38 74 -200 108 -279c23 56 56 145 78 196c-7 18 -25 66 -32 80c-12 32 -29 43 -58 47v7h231v-8c-23 -1 -59 -4 -59 -22c0 -1 1 -10 6 -21c14 -38 72 -206 104 -281c28 72 74 193 96 255c4 11 7 28 7 35c0 23 -52 32 -77 36v6h168z" />
    <glyph glyph-name="x" unicode="x" horiz-adv-x="480" 
d="M488 8v-8h-243v8c24 2 61 9 61 20c0 5 -4 13 -13 27c-9 18 -62 100 -89 140c-23 -28 -82 -100 -104 -132c-6 -9 -12 -19 -12 -26c0 -18 40 -27 70 -30v-7h-164v6c43 10 64 30 87 60c19 23 83 98 116 140c-25 36 -105 162 -130 199s-43 44 -65 45v7h234v-7
c-24 0 -54 -6 -55 -14c-1 -7 3 -14 8 -22c9 -15 64 -103 86 -135c23 31 67 88 90 122c6 9 9 16 8 22c-1 14 -29 19 -68 28v6h170v-6c-52 -11 -69 -28 -93 -56c-16 -18 -64 -79 -100 -126c30 -43 115 -177 138 -211c20 -30 33 -47 68 -50z" />
    <glyph glyph-name="y" unicode="y" horiz-adv-x="459" 
d="M486 457v-6c-33 -6 -54 -19 -69 -55c-34 -81 -129 -323 -165 -414c-68 -169 -118 -209 -188 -209c-30 0 -81 20 -81 76c0 31 25 65 64 65c27 0 62 -15 62 -58c0 -14 -8 -53 -9 -63c62 10 120 145 137 191c-49 116 -158 343 -191 417c-12 27 -30 43 -68 49v7h244v-9
c-22 -1 -60 -5 -60 -21c0 -2 3 -11 7 -21c16 -42 93 -206 126 -277c27 65 71 180 98 252c4 12 8 26 8 35c0 21 -41 29 -78 35v6h163z" />
    <glyph glyph-name="z" unicode="z" horiz-adv-x="433" 
d="M417 161v-161h-402v10l269 435h-68c-45 0 -81 -3 -99 -11c-22 -9 -57 -76 -76 -117h-8v140h379v-10l-269 -436c29 -1 54 -1 79 -1c30 0 57 2 85 4c25 2 42 25 54 47c16 29 37 74 48 100h8z" />
    <glyph glyph-name="bullet" unicode="&#x2022;" horiz-adv-x="405" 
d="M342 325c0 -74 -62 -134 -136 -134s-136 60 -136 134s62 136 136 136s136 -62 136 -136z" />
    <glyph glyph-name="registered" unicode="&#xae;" horiz-adv-x="474" 
d="M419 521c0 -103 -79 -182 -182 -182s-182 79 -182 182s79 182 182 182s182 -79 182 -182zM398 521c0 93 -68 165 -161 165s-161 -72 -161 -165s68 -165 161 -165s161 72 161 165zM346 465h6c0 -29 -10 -42 -39 -42c-24 0 -41 17 -45 51c-3 23 -7 51 -42 51h-15v-74
c0 -7 2 -12 9 -15c4 -2 14 -3 20 -3v-7h-98v7c5 0 18 2 20 3c6 3 9 8 9 15v154c0 7 -2 13 -9 15c-6 2 -15 4 -20 4v7h107c30 0 68 -10 68 -46c0 -32 -33 -46 -62 -52v-3c14 -2 45 -10 50 -32c4 -16 6 -30 10 -44c4 -12 9 -14 15 -14c8 0 16 4 16 25zM274 579
c0 34 -16 44 -39 44h-24v-90h16c27 0 47 14 47 46z" />
    <glyph glyph-name="copyright" unicode="&#xa9;" horiz-adv-x="950" 
d="M911 251c0 -238 -194 -432 -435 -432c-242 0 -437 194 -437 432c0 236 194 430 437 430c241 0 435 -194 435 -430zM875 251c0 221 -177 402 -399 402c-223 0 -401 -181 -401 -402c0 -224 178 -405 401 -405c222 0 399 181 399 405zM661 158l12 -5
c-33 -73 -88 -140 -191 -140c-141 0 -239 90 -239 234c0 138 109 243 255 243c50 0 105 -19 123 -32l25 38h8l4 -180h-9c-25 74 -65 162 -154 162c-75 0 -136 -81 -136 -226c0 -123 49 -206 150 -206c73 0 123 49 152 112z" />
    <glyph glyph-name="trademark" unicode="&#x2122;" horiz-adv-x="657" 
d="M636 438v-5h-140v5c6 1 32 3 37 6c7 4 10 9 10 18v193h-6l-88 -219h-6c-5 15 -11 32 -19 52l-64 162h-6v-152c0 -28 5 -43 12 -49s33 -10 39 -11v-5h-112v5c6 1 28 3 37 9c8 6 12 22 12 49v141c0 16 -4 25 -11 30c-10 7 -26 10 -35 10v6h102l69 -172l56 139
c4 11 7 24 8 33h104v-6c-6 0 -24 -4 -31 -6c-7 -3 -10 -9 -10 -17v-192c0 -9 3 -14 10 -17c5 -3 25 -6 32 -7zM270 683v-74h-5c-5 15 -25 61 -41 63c-9 1 -19 1 -29 1h-17v-212c0 -8 4 -14 11 -17l32 -6v-5h-140v5c7 1 27 2 33 5c8 3 12 8 12 16v214h-19c-8 0 -20 0 -29 -1
c-16 -2 -37 -48 -41 -63h-5v74h238z" />
    <glyph glyph-name="acute" unicode="&#xb4;" 
d="M363 698c0 -30 -17 -44 -50 -66c-31 -22 -76 -49 -151 -104l-5 6c44 77 66 120 89 157c20 34 39 51 68 51c30 0 49 -22 49 -44z" />
    <glyph glyph-name="dieresis" unicode="&#xa8;" 
d="M425 645c0 -37 -30 -68 -66 -68s-65 30 -65 66c0 37 29 68 65 68c37 0 66 -31 66 -66zM206 645c0 -37 -29 -68 -66 -68c-35 0 -65 30 -65 66c0 37 30 68 65 68c37 0 66 -31 66 -66z" />
    <glyph glyph-name="ellipsis" unicode="&#x2026;" horiz-adv-x="815" 
d="M755 64c0 -42 -34 -74 -75 -74c-42 0 -76 32 -76 74s34 75 76 75c41 0 75 -33 75 -75zM484 64c0 -42 -35 -74 -76 -74s-76 32 -76 74s35 75 76 75s76 -33 76 -75zM212 64c0 -42 -35 -74 -76 -74s-76 32 -76 74s35 75 76 75s76 -33 76 -75z" />
    <glyph glyph-name="endash" unicode="&#x2013;" horiz-adv-x="544" 
d="M50 216v75h444v-75h-444z" />
    <glyph glyph-name="emdash" unicode="&#x2014;" horiz-adv-x="884" 
d="M50 216v75h784v-75h-784z" />
    <glyph glyph-name="quotedblleft" unicode="&#x201c;" horiz-adv-x="382" 
d="M22 586c0 90 90 143 148 169l6 -10c-53 -26 -106 -79 -109 -135h35c57 0 74 -39 74 -68c0 -27 -22 -65 -67 -65c-65 0 -87 49 -87 109zM206 586c0 90 90 143 148 169l5 -10c-53 -26 -105 -79 -109 -135h36c56 0 74 -39 74 -68c0 -27 -23 -65 -67 -65
c-65 0 -87 49 -87 109z" />
    <glyph glyph-name="quotedblright" unicode="&#x201d;" horiz-adv-x="382" 
d="M188 646c0 -90 -90 -144 -148 -169l-6 10c53 26 106 79 109 135h-35c-57 0 -74 39 -74 68c0 27 22 65 67 65c65 0 87 -49 87 -109zM371 646c0 -90 -90 -144 -148 -169l-6 10c53 26 106 79 109 135h-35c-57 0 -74 39 -74 68c0 27 23 65 67 65c65 0 87 -49 87 -109z" />
    <glyph glyph-name="quoteleft" unicode="&#x2018;" horiz-adv-x="199" 
d="M22 586c0 90 90 143 148 169l6 -10c-53 -26 -106 -79 -109 -135h35c57 0 74 -39 74 -68c0 -27 -22 -65 -67 -65c-65 0 -87 49 -87 109z" />
    <glyph glyph-name="quoteright" unicode="&#x2019;" horiz-adv-x="199" 
d="M188 646c0 -90 -90 -144 -148 -169l-6 10c53 26 106 79 109 135h-35c-57 0 -74 39 -74 68c0 27 22 65 67 65c65 0 87 -49 87 -109z" />
    <glyph glyph-name="periodcentered" unicode="&#xb7;" horiz-adv-x="259" 
d="M206 273c0 -43 -35 -76 -77 -76s-77 33 -77 76s35 77 77 77s77 -34 77 -77z" />
    <glyph glyph-name="periodcentered" unicode="&#x2219;" horiz-adv-x="259" 
d="M206 273c0 -43 -35 -76 -77 -76s-77 33 -77 76s35 77 77 77s77 -34 77 -77z" />
    <glyph glyph-name="circumflex" unicode="&#x2c6;" 
d="M411 544l-9 -7l-153 122l-152 -122l-8 7c48 74 87 137 112 175c11 17 18 21 50 21c31 0 37 -5 47 -19c24 -35 65 -101 113 -177z" />
    <glyph glyph-name="tilde" unicode="&#x2dc;" 
d="M435 700l11 -3c-14 -50 -62 -133 -133 -133c-76 0 -109 54 -163 54c-36 0 -62 -19 -86 -64l-11 4c17 48 61 132 130 132c74 0 114 -55 166 -55c40 0 67 21 86 65z" />
    <glyph glyph-name="macron" unicode="&#xaf;" 
d="M415 666v-75h-330v75h330z" />
    <glyph glyph-name="macron" unicode="&#x304;" 
d="M415 666v-75h-330v75h330z" />
    <glyph glyph-name="breve" unicode="&#x2d8;" 
d="M391 725l13 -5c-37 -138 -100 -182 -154 -182s-117 44 -154 182l13 5c30 -63 81 -102 141 -102s111 39 141 102z" />
    <glyph glyph-name="dotaccent" unicode="&#x2d9;" 
d="M316 652c0 -37 -30 -69 -66 -69s-65 31 -65 67s29 67 65 67c37 0 66 -30 66 -65z" />
    <glyph glyph-name="ring" unicode="&#x2da;" 
d="M370 630c0 -59 -47 -102 -120 -102s-120 41 -120 102s54 102 120 102c69 0 120 -40 120 -102zM309 630c0 43 -15 91 -59 91c-43 0 -59 -45 -59 -91c0 -43 15 -90 59 -90s59 46 59 90z" />
    <glyph glyph-name="cedilla" unicode="&#xb8;" 
d="M355 -133c0 -87 -98 -100 -215 -100v14c63 0 135 5 135 64c0 33 -33 40 -72 40v115h13v-51c78 1 139 -17 139 -82z" />
    <glyph glyph-name="hungarumlaut" unicode="&#x2dd;" 
d="M438 703c0 -27 -12 -39 -37 -58c-31 -24 -67 -47 -152 -111l-6 7c43 75 66 119 88 156c21 35 37 45 65 45c24 0 42 -19 42 -39zM254 703c0 -27 -12 -39 -37 -58c-31 -24 -67 -47 -151 -111l-7 7c42 73 66 119 89 156c21 35 37 45 65 45c24 0 41 -19 41 -39z" />
    <glyph glyph-name="ogonek" unicode="&#x2db;" 
d="M342 -220v-11c-116 1 -192 22 -192 88c0 56 67 99 149 143h11c-53 -44 -70 -94 -70 -133c0 -48 21 -79 102 -87z" />
    <glyph glyph-name="caron" unicode="&#x2c7;" 
d="M89 733l9 7l153 -123l151 122l9 -6c-48 -74 -88 -137 -112 -175c-12 -18 -18 -21 -50 -21s-38 4 -47 19c-24 35 -65 101 -113 177z" />
    <glyph glyph-name="Eth" unicode="&#xd0;" horiz-adv-x="770" 
d="M32 0v7c24 1 59 5 72 10c24 8 31 25 31 47v284h-92v24h92v241c0 22 -7 42 -31 51c-20 8 -48 11 -70 12v7h331c140 0 376 -72 376 -346c0 -233 -196 -337 -393 -337h-316zM364 12c157 0 225 132 225 326c0 197 -95 334 -245 334c-21 0 -56 -1 -76 -2v-298h137v-24h-137
v-265c3 -47 31 -71 96 -71z" />
    <glyph glyph-name="eth" unicode="&#xf0;" horiz-adv-x="528" 
d="M264 -14c-127 0 -239 84 -239 243c0 145 104 241 243 241c48 0 83 -18 102 -42l4 2c-12 92 -45 154 -82 205l-115 -73l-11 18l112 72c-27 33 -62 69 -87 87l5 8c29 -15 79 -42 118 -73l91 59l12 -18l-85 -55c84 -71 170 -187 170 -369c0 -167 -78 -305 -238 -305zM265 -4
c84 0 110 110 110 236c0 115 -23 227 -109 227c-93 0 -112 -119 -112 -225c0 -125 23 -238 111 -238z" />
    <glyph glyph-name="Lslash" unicode="&#x141;" horiz-adv-x="625" 
d="M30 0v7c17 1 60 5 74 11c24 9 31 27 31 49v237l-90 -32l-8 21l98 36v284c0 22 -6 39 -31 50c-18 8 -56 12 -74 13v7h341v-7c-18 -1 -54 -2 -72 -8c-25 -8 -31 -28 -31 -50v-246l135 49l8 -21l-143 -52v-247c0 -80 18 -89 113 -89c61 0 116 2 138 24c31 32 87 129 104 168
h8l-13 -204h-588z" />
    <glyph glyph-name="lslash" unicode="&#x142;" horiz-adv-x="293" 
d="M21 0v7c17 1 29 2 43 6c19 7 26 23 26 45v259l-81 -30l-8 21l89 33v319c-1 23 -11 44 -27 55c-12 8 -51 13 -69 14v6l207 11l4 -4v-364l78 29l8 -21l-86 -32v-292c0 -22 9 -39 27 -47c14 -6 26 -7 43 -8v-7h-254z" />
    <glyph glyph-name="Scaron" unicode="&#x160;" horiz-adv-x="558" 
d="M120 933l9 7l153 -123l151 122l9 -6c-48 -74 -88 -137 -112 -175c-12 -18 -18 -21 -50 -21s-38 4 -47 19c-24 35 -65 101 -113 177zM527 197c0 -122 -101 -211 -242 -211c-101 0 -168 32 -201 54l-33 -49h-10l-6 242h9c49 -128 121 -234 237 -234c95 0 135 67 135 139
c0 60 -40 105 -107 130c-51 20 -91 33 -136 52c-81 35 -120 98 -120 185c0 107 88 193 218 193c79 0 145 -25 179 -50l31 45h10l4 -232h-9c-38 117 -98 224 -213 224c-63 0 -116 -48 -116 -119c0 -60 33 -99 102 -130c45 -21 94 -34 133 -51c82 -37 135 -82 135 -188z" />
    <glyph glyph-name="scaron" unicode="&#x161;" horiz-adv-x="406" 
d="M43 733l9 7l153 -123l151 122l9 -6c-48 -74 -88 -137 -112 -175c-12 -18 -18 -21 -50 -21s-38 4 -47 19c-24 35 -65 101 -113 177zM381 134c0 -94 -79 -148 -179 -148c-64 0 -125 26 -144 43l-20 -34h-9l-5 163h8c20 -54 88 -162 169 -162c62 0 92 40 92 88
c0 52 -29 74 -122 103c-65 20 -134 58 -134 147c0 75 61 136 163 136c51 0 98 -12 124 -27l19 28h9l6 -147h-8c-26 65 -79 136 -144 136c-55 0 -79 -43 -79 -80c0 -55 33 -69 118 -97c81 -26 136 -67 136 -149z" />
    <glyph glyph-name="Yacute" unicode="&#xdd;" horiz-adv-x="657" 
d="M683 683v-7c-17 -2 -36 -7 -48 -14c-27 -15 -42 -33 -60 -62c-47 -73 -97 -161 -150 -257c-29 -54 -32 -76 -32 -130v-144c0 -22 8 -40 30 -50c12 -5 64 -11 81 -12v-7h-357v7c18 1 68 5 81 10c24 9 31 28 31 50v174c0 31 -8 52 -28 90c-36 70 -110 204 -143 260
c-18 30 -38 56 -62 70c-18 10 -41 14 -60 15v7h353v-7c-35 -2 -104 -9 -104 -31c0 -7 18 -47 46 -99c24 -43 85 -158 128 -232c40 68 90 155 125 219c30 55 46 90 46 101c0 30 -66 39 -111 42v7h234zM508 895c0 -30 -17 -44 -50 -66c-31 -22 -76 -49 -151 -104l-5 6
c44 77 66 120 89 157c20 34 39 51 68 51c30 0 49 -22 49 -44z" />
    <glyph glyph-name="yacute" unicode="&#xfd;" horiz-adv-x="459" 
d="M486 457v-6c-33 -6 -54 -19 -69 -55c-34 -81 -129 -323 -165 -414c-68 -169 -118 -209 -188 -209c-30 0 -81 20 -81 76c0 31 25 65 64 65c27 0 62 -15 62 -58c0 -14 -8 -53 -9 -63c62 10 120 145 137 191c-49 116 -158 343 -191 417c-12 27 -30 43 -68 49v7h244v-9
c-22 -1 -60 -5 -60 -21c0 -2 3 -11 7 -21c16 -42 93 -206 126 -277c27 65 71 180 98 252c4 12 8 26 8 35c0 21 -41 29 -78 35v6h163zM416 698c0 -30 -17 -44 -50 -66c-31 -22 -76 -49 -151 -104l-5 6c44 77 66 120 89 157c20 34 39 51 68 51c30 0 49 -22 49 -44z" />
    <glyph glyph-name="Thorn" unicode="&#xde;" horiz-adv-x="625" 
d="M30 0v7c18 1 61 6 74 11c24 9 31 27 31 49v546c0 22 -6 41 -31 50c-24 8 -58 12 -76 13v7h343v-7c-18 -1 -54 -4 -72 -10c-24 -8 -31 -25 -31 -47v-84h110c138 0 229 -57 229 -166c0 -142 -137 -210 -275 -210h-64v-91c0 -22 7 -41 31 -50c12 -5 52 -10 79 -11v-7h-348z
M268 173h35c128 0 155 106 155 172c0 87 -31 177 -138 177h-52v-349z" />
    <glyph glyph-name="thorn" unicode="&#xfe;" horiz-adv-x="566" 
d="M3 -226v7c19 1 42 4 55 8c19 6 26 25 26 46v826c-2 23 -11 43 -27 54c-12 8 -43 13 -61 14v6l198 11l4 -5v-336l4 -1c22 25 69 66 133 66c114 0 201 -96 201 -241c0 -142 -102 -241 -222 -241c-56 0 -89 14 -112 31h-4v-178c0 -24 10 -40 28 -47c20 -7 51 -12 71 -13v-7
h-294zM295 0c77 0 114 91 114 224c0 107 -31 205 -120 205c-43 0 -68 -17 -91 -43v-310c11 -32 38 -76 97 -76z" />
    <glyph glyph-name="Zcaron" unicode="&#x17d;" horiz-adv-x="626" 
d="M164 930l9 7l153 -123l151 122l9 -6c-48 -74 -88 -137 -112 -175c-12 -18 -18 -21 -50 -21s-38 4 -47 19c-24 35 -65 101 -113 177zM612 213h10l-23 -213h-599v11l457 660h-173c-43 0 -70 -2 -90 -9c-43 -11 -111 -104 -145 -171h-10l21 192h550v-11l-457 -660h191
c82 0 132 7 152 28c41 42 94 125 116 173z" />
    <glyph glyph-name="zcaron" unicode="&#x17e;" horiz-adv-x="433" 
d="M58 733l9 7l153 -123l151 122l9 -6c-48 -74 -88 -137 -112 -175c-12 -18 -18 -21 -50 -21s-38 4 -47 19c-24 35 -65 101 -113 177zM417 161v-161h-402v10l269 435h-68c-45 0 -81 -3 -99 -11c-22 -9 -57 -76 -76 -117h-8v140h379v-10l-269 -436c29 -1 54 -1 79 -1
c30 0 57 2 85 4c25 2 42 25 54 47c16 29 37 74 48 100h8z" />
    <glyph glyph-name="onehalf" unicode="&#xbd;" horiz-adv-x="566" 
d="M116 -227v26c88 55 142 90 188 134c56 54 72 97 72 155c0 49 -29 85 -78 85c-72 0 -121 -67 -121 -117c0 -25 11 -51 50 -51c40 0 69 35 82 56l6 -4c-20 -35 -59 -87 -128 -87c-48 0 -74 27 -74 69c0 62 80 143 194 143c97 0 159 -47 159 -112c0 -87 -69 -134 -218 -198
c-8 -4 -44 -27 -52 -34h213c35 0 55 35 79 73l5 -3l-61 -135h-316zM41 244v29h483v-29h-483zM153 339v7c15 1 58 4 70 7c14 4 24 16 24 32v317c-8 -2 -17 -3 -31 -3c-26 0 -59 10 -89 33l2 4c20 -7 52 -16 80 -16c52 0 103 17 127 29h6c-7 -29 -9 -65 -9 -102v-260
c0 -14 9 -25 23 -31c12 -4 55 -9 68 -10v-7h-271z" />
    <glyph glyph-name="onequarter" unicode="&#xbc;" horiz-adv-x="566" 
d="M224 -227v6c13 1 40 3 50 6c13 4 21 16 21 30v90h-212v25l256 254h37v-247c41 0 70 -1 85 9c12 9 20 33 20 49h6v-151h-6c-1 19 -7 43 -21 54c-12 9 -41 7 -84 7v-86c0 -14 6 -26 20 -31c10 -4 36 -8 50 -9v-6h-222zM41 244v29h483v-29h-483zM107 -63h188v187zM153 339v7
c15 1 58 4 70 7c14 4 24 16 24 32v317c-8 -2 -17 -3 -31 -3c-26 0 -59 10 -89 33l2 4c20 -7 52 -16 80 -16c52 0 103 17 127 29h6c-7 -29 -9 -65 -9 -102v-260c0 -14 9 -25 23 -31c12 -4 55 -9 68 -10v-7h-271z" />
    <glyph glyph-name="onesuperior" unicode="&#xb9;" horiz-adv-x="345" 
d="M44 339v7c15 1 58 4 70 7c14 4 24 16 24 32v317c-8 -2 -17 -3 -31 -3c-26 0 -59 10 -89 33l2 4c20 -7 52 -16 80 -16c52 0 103 17 127 29h6c-7 -29 -9 -65 -9 -102v-260c0 -14 9 -25 23 -31c12 -4 55 -9 68 -10v-7h-271z" />
    <glyph glyph-name="threequarters" unicode="&#xbe;" horiz-adv-x="566" 
d="M237 332c-68 0 -145 29 -145 93c0 37 30 63 61 63c26 0 42 -15 42 -40c0 -36 -46 -34 -46 -56c0 -25 31 -52 86 -52c72 0 133 69 133 138c0 41 -15 80 -58 80c-25 0 -56 -28 -78 -48l-11 17c80 40 143 72 143 138c0 41 -24 72 -67 72c-38 0 -98 -37 -98 -88
c0 -23 11 -41 38 -41c28 0 45 18 56 27l3 -4c-18 -23 -55 -52 -95 -52c-49 0 -71 22 -71 55c0 56 88 112 188 112c98 0 133 -44 133 -85c0 -37 -42 -77 -138 -94c78 3 146 -20 146 -89c0 -87 -100 -146 -222 -146zM224 -227v6c13 1 40 3 50 6c13 4 21 16 21 30v90h-212v25
l256 254h37v-247c41 0 70 -1 85 9c12 9 20 33 20 49h6v-151h-6c-1 19 -7 43 -21 54c-12 9 -41 7 -84 7v-86c0 -14 6 -26 20 -31c10 -4 36 -8 50 -9v-6h-222zM41 244v29h483v-29h-483zM107 -63h188v187z" />
    <glyph glyph-name="threesuperior" unicode="&#xb3;" horiz-adv-x="458" 
d="M189 332c-68 0 -144 29 -144 93c0 37 30 63 61 63c25 0 42 -15 42 -40c0 -36 -46 -34 -46 -56c0 -25 30 -51 86 -51c72 0 133 68 133 137c0 41 -14 79 -57 79c-26 0 -57 -27 -79 -47l-12 17c80 40 144 72 144 138c0 41 -24 72 -67 72c-38 0 -99 -37 -99 -88
c0 -23 11 -41 39 -41s45 18 56 27l4 -4c-18 -23 -56 -52 -96 -52c-48 0 -71 22 -71 55c0 56 88 112 187 112s133 -44 133 -85c0 -37 -41 -77 -136 -94c77 3 144 -20 144 -89c0 -87 -99 -146 -222 -146z" />
    <glyph glyph-name="twosuperior" unicode="&#xb2;" horiz-adv-x="459" 
d="M68 337v26c88 55 141 90 188 134c55 54 72 97 72 155c0 49 -30 85 -79 85c-72 0 -120 -67 -120 -117c0 -25 11 -51 50 -51c38 0 69 35 82 56l6 -4c-20 -35 -59 -86 -128 -86c-49 0 -74 26 -74 68c0 62 79 143 193 143c98 0 160 -47 160 -112c0 -87 -71 -134 -219 -198
c-8 -4 -42 -27 -51 -34h212c35 0 55 35 79 73l6 -3l-61 -135h-316z" />
    <glyph glyph-name="brokenbar" unicode="&#xa6;" horiz-adv-x="277" 
d="M122 -207v392h34v-392h-34zM122 363v383h34v-383h-34z" />
    <glyph glyph-name="minus" unicode="&#x2212;" horiz-adv-x="562" 
d="M43 240v40h476v-40h-476z" />
    <glyph glyph-name="multiply" unicode="&#xd7;" horiz-adv-x="562" 
d="M88 39l-27 27l194 192l-191 191l29 29l190 -190l190 190l26 -27l-190 -190l192 -191l-28 -30l-193 192z" />
    <glyph glyph-name="numbersign" unicode="#" horiz-adv-x="518" 
d="M183 -7v157l-112 -28v93l112 27v117l-112 -28v91l112 28v177h13v-173l126 32v141h13v-137l112 28v-92l-112 -28v-117l112 28v-91l-112 -28v-197h-13v193l-126 -32v-161h-13zM196 245l126 33v117l-126 -33v-117z" />
    <glyph glyph-name="dollar" unicode="$" horiz-adv-x="602" 
d="M255 -142v137c-115 12 -193 66 -193 142c0 59 27 93 70 93c36 0 55 -24 55 -61c0 -49 -44 -46 -58 -72c0 -46 57 -81 126 -90v256c-99 12 -180 55 -180 170c0 89 61 163 180 182v98h15v-96c8 1 30 3 42 3s29 0 40 -2v95h16v-96c105 -13 157 -66 157 -123
c0 -47 -22 -83 -60 -83c-28 0 -55 17 -55 53c0 45 42 54 51 86c-6 20 -41 47 -93 55v-237c96 -17 178 -49 178 -180c0 -72 -46 -163 -178 -189v-141h-16v139c-17 -2 -38 -4 -56 -4c-8 0 -20 0 -26 1v-136h-15zM270 5h26c20 0 42 2 56 4v242c-21 4 -55 8 -82 10v-256z
M352 370v237c-9 1 -24 1 -33 1c-12 0 -35 -2 -49 -4v-224zM368 14c63 19 86 73 86 125c0 63 -31 100 -86 109v-234zM255 383v218c-54 -14 -86 -65 -86 -112c0 -68 36 -97 86 -106z" />
    <glyph glyph-name="percent" unicode="%" horiz-adv-x="857" 
d="M220 293c-90 0 -166 55 -166 160c0 99 83 167 166 167c90 0 172 -49 172 -166c0 -90 -82 -161 -172 -161zM223 303c48 0 80 62 80 149c0 93 -25 159 -82 159s-80 -72 -80 -154c0 -83 22 -154 82 -154zM631 -14c-90 0 -166 55 -166 160c0 97 84 167 166 167
c89 0 172 -49 172 -166c0 -91 -82 -161 -172 -161zM635 -5c45 0 79 65 79 150c0 90 -25 159 -81 159c-58 0 -81 -74 -81 -154c0 -83 22 -155 83 -155zM222 -96l-19 10l428 774l21 -10z" />
    <glyph glyph-name="asterisk" unicode="*" horiz-adv-x="384" 
d="M194 397c-20 0 -29 12 -29 28c0 23 21 78 24 117c-31 -21 -62 -59 -83 -76c-15 -12 -32 -12 -42 4c-12 20 -1 35 16 42c27 11 65 18 107 36c-42 18 -82 26 -110 38c-20 8 -27 24 -16 42c13 17 31 15 43 3c22 -17 53 -56 85 -77c-4 41 -24 96 -24 117c0 18 9 28 29 28
c21 0 29 -12 29 -27c0 -21 -21 -77 -26 -118c33 24 64 62 85 78c15 12 31 10 40 -6c12 -20 2 -33 -14 -40c-22 -12 -67 -20 -109 -38c39 -16 78 -24 107 -36c20 -8 28 -26 16 -43c-12 -18 -29 -15 -41 -5c-22 18 -52 55 -84 78c5 -38 26 -97 26 -117c0 -15 -10 -28 -29 -28z
" />
    <glyph glyph-name="plus" unicode="+" horiz-adv-x="562" 
d="M260 19v220h-220v41h220v221h42v-221h220v-41h-220v-220h-42z" />
    <glyph glyph-name="slash" unicode="/" horiz-adv-x="404" 
d="M60 -208l-29 8l312 952l30 -9z" />
    <glyph glyph-name="less" unicode="&#x3c;" horiz-adv-x="562" 
d="M498 33l-442 211v32l442 211v-43l-389 -184l389 -184v-43z" />
    <glyph glyph-name="equal" unicode="=" horiz-adv-x="562" 
d="M60 155v41h442v-41h-442zM60 324v41h442v-41h-442z" />
    <glyph glyph-name="greater" unicode="&#x3e;" horiz-adv-x="562" 
d="M64 33v43l388 184l-388 184v43l442 -211v-32z" />
    <glyph glyph-name="at" unicode="@" horiz-adv-x="1010" 
d="M511 -215c-218 0 -420 140 -420 394c0 271 228 477 486 477c199 0 327 -134 327 -322c0 -163 -109 -301 -234 -301c-56 0 -100 28 -101 84l-3 1c-27 -45 -70 -83 -115 -83s-106 31 -106 133c0 93 88 258 223 258c36 0 67 -23 73 -62h3l21 56h76l-94 -269
c-6 -16 -12 -40 -12 -57c0 -28 12 -50 43 -50c94 0 206 118 206 296c0 173 -127 292 -306 292c-183 0 -383 -165 -383 -448c0 -242 152 -368 337 -368c186 0 343 99 413 303l9 -3c-66 -222 -250 -331 -443 -331zM466 55c46 0 79 44 107 94l64 192c-9 55 -35 72 -69 72
c-80 0 -146 -174 -147 -277c0 -69 26 -81 45 -81z" />
    <glyph glyph-name="bracketleft" unicode="[" horiz-adv-x="557" 
d="M483 -199l-5 2c8 9 18 28 18 45c0 19 -5 47 -92 47c-98 0 -178 -17 -306 -46l-23 -8v886l23 -8c128 -29 208 -46 306 -46c87 0 92 24 92 47c0 17 -8 33 -16 44l5 3c11 -8 27 -36 27 -64c0 -70 -41 -119 -132 -119c-101 0 -170 60 -275 122v-844c105 62 174 122 275 122
c91 0 132 -49 132 -119c0 -30 -20 -56 -29 -64z" />
    <glyph glyph-name="backslash" unicode="\" horiz-adv-x="404" 
d="M344 -208l-313 951l29 9l313 -952z" />
    <glyph glyph-name="bracketright" unicode="]" horiz-adv-x="557" 
d="M80 -199c-10 8 -29 34 -29 64c0 70 40 119 130 119c102 0 171 -60 276 -122v844c-105 -62 -174 -122 -276 -122c-90 0 -130 49 -130 119c0 28 15 56 26 64l5 -3c-8 -11 -16 -27 -16 -44c0 -23 5 -47 92 -47c99 0 178 17 306 46l23 8v-886l-23 8c-129 29 -207 46 -306 46
c-87 0 -92 -28 -92 -47c0 -17 11 -36 19 -45z" />
    <glyph glyph-name="asciicircum" unicode="^" horiz-adv-x="436" 
d="M219 530l-168 -136l-6 3c72 114 78 127 117 188c19 30 26 35 56 35s37 -5 56 -35c39 -61 45 -74 117 -188l-6 -3z" />
    <glyph glyph-name="underscore" unicode="_" horiz-adv-x="598" 
d="M-7 -149v41h610v-41h-610z" />
    <glyph glyph-name="braceleft" unicode="{" horiz-adv-x="419" 
d="M390 -169c-139 0 -222 27 -222 171c0 41 16 87 16 129c0 106 -59 123 -153 130v53c95 8 153 24 153 130c0 42 -16 88 -16 129c0 144 83 171 222 171v-7c-58 -3 -112 -15 -112 -128c0 -40 9 -80 9 -120c0 -140 -86 -160 -187 -177v-49c100 -17 187 -37 187 -177
c0 -40 -9 -80 -9 -120c0 -114 54 -125 112 -128v-7z" />
    <glyph glyph-name="bar" unicode="|" horiz-adv-x="277" 
d="M122 -207v953h34v-953h-34z" />
    <glyph glyph-name="braceright" unicode="}" horiz-adv-x="419" 
d="M28 -169v7c58 3 112 14 112 128c0 40 -9 80 -9 120c0 140 87 160 187 177v49c-101 17 -187 37 -187 177c0 40 9 80 9 120c0 113 -54 125 -112 128v7c139 0 223 -27 223 -171c0 -41 -16 -87 -16 -129c0 -106 57 -122 152 -130v-53c-94 -7 -152 -24 -152 -130
c0 -42 16 -88 16 -129c0 -144 -84 -171 -223 -171z" />
    <glyph glyph-name="asciitilde" unicode="~" horiz-adv-x="529" 
d="M60 192l-7 2c18 67 69 136 138 136c75 0 126 -46 177 -46s78 19 101 62l6 -2c-19 -69 -64 -138 -131 -138c-80 0 -126 45 -177 45s-84 -16 -107 -59z" />
    <glyph glyph-name="Adieresis" unicode="&#xc4;" horiz-adv-x="681" 
d="M710 7v-7h-340v7c35 2 103 9 106 34c1 8 -1 18 -4 24l-69 183h-237c-13 -33 -45 -117 -52 -139c-7 -24 -14 -48 -14 -61c0 -36 86 -39 121 -41v-7h-250v7c18 1 41 4 59 15c24 15 42 44 57 79c54 129 186 449 243 593h35c78 -195 218 -553 247 -624c8 -20 16 -37 40 -50
c17 -9 39 -12 58 -13zM172 264h224l-110 282zM519 832c0 -37 -30 -68 -66 -68s-65 30 -65 66c0 37 29 68 65 68c37 0 66 -31 66 -66zM300 832c0 -37 -29 -68 -66 -68c-35 0 -65 30 -65 66c0 37 30 68 65 68c37 0 66 -31 66 -66z" />
    <glyph glyph-name="Aring" unicode="&#xc5;" horiz-adv-x="681" 
d="M710 7v-7h-340v7c35 2 103 9 106 34c1 8 -1 18 -4 24l-69 183h-237c-13 -33 -45 -117 -52 -139c-7 -24 -14 -48 -14 -61c0 -36 86 -39 121 -41v-7h-250v7c18 1 41 4 59 15c24 15 42 44 57 79c54 129 186 449 243 593h35c78 -195 218 -553 247 -624c8 -20 16 -37 40 -50
c17 -9 39 -12 58 -13zM172 264h224l-110 282zM465 827c0 -59 -47 -102 -120 -102s-120 41 -120 102s54 102 120 102c69 0 120 -40 120 -102zM404 827c0 43 -15 91 -59 91c-43 0 -59 -45 -59 -91c0 -43 15 -90 59 -90s59 46 59 90z" />
    <glyph glyph-name="Ccedilla" unicode="&#xc7;" horiz-adv-x="653" 
d="M264 -235v13c62 0 135 5 135 64c0 34 -33 40 -73 40v105c-173 16 -296 146 -296 346c0 211 150 365 354 365c81 0 148 -26 185 -52l33 47h10l4 -251h-10c-44 140 -123 242 -234 242c-124 0 -192 -128 -192 -338c0 -194 75 -324 219 -324c113 0 186 68 231 160l13 -6
c-43 -99 -128 -191 -277 -191c-9 0 -18 1 -26 1v-40c77 1 139 -17 139 -81c0 -87 -98 -100 -215 -100z" />
    <glyph glyph-name="Eacute" unicode="&#xc9;" horiz-adv-x="661" 
d="M500 895c0 -30 -17 -44 -50 -66c-31 -22 -76 -49 -151 -104l-5 6c44 77 66 120 89 157c20 34 39 51 68 51c30 0 49 -22 49 -44zM634 0h-605v7c23 1 61 6 75 11c24 8 31 25 31 47v548c0 22 -6 41 -31 50c-18 7 -53 12 -75 13v7h565v-166h-10c-13 45 -77 144 -124 150
c-24 3 -63 5 -94 5h-98v-312h84c56 0 74 18 86 31c18 17 38 75 42 101h10v-281h-10c-3 30 -28 91 -42 106c-13 15 -32 31 -86 31h-84v-248c0 -78 17 -88 113 -88c63 0 130 -1 154 23c35 36 88 132 103 165h9z" />
    <glyph glyph-name="Ntilde" unicode="&#xd1;" horiz-adv-x="754" 
d="M762 683v-7c-17 -2 -69 -5 -92 -22c-24 -17 -32 -74 -32 -143v-516h-30l-460 584v-410c0 -83 11 -121 33 -138c19 -15 81 -23 98 -24v-7h-271v7c17 2 73 8 92 22c23 18 32 60 32 137v395c0 30 -13 64 -34 83c-23 20 -66 27 -98 31v8h228l394 -498v325
c0 74 -11 125 -34 144c-20 16 -77 21 -98 22v7h272zM586 897l11 -3c-14 -50 -62 -133 -133 -133c-76 0 -109 54 -163 54c-36 0 -62 -19 -86 -64l-11 4c17 48 61 132 130 132c74 0 114 -55 166 -55c40 0 67 21 86 65z" />
    <glyph glyph-name="Odieresis" unicode="&#xd6;" horiz-adv-x="768" 
d="M559 832c0 -37 -30 -68 -66 -68s-65 30 -65 66c0 37 29 68 65 68c37 0 66 -31 66 -66zM340 832c0 -37 -29 -68 -66 -68c-35 0 -65 30 -65 66c0 37 30 68 65 68c37 0 66 -31 66 -66zM737 346c0 -107 -34 -202 -108 -270c-63 -60 -145 -92 -249 -92c-93 0 -179 33 -244 94
s-106 147 -106 256c0 114 38 204 105 268s153 97 249 97c94 0 181 -30 251 -97c63 -60 102 -150 102 -256zM586 343c0 174 -51 344 -202 344c-129 0 -202 -130 -202 -348c0 -190 60 -343 202 -343c141 0 202 150 202 347z" />
    <glyph glyph-name="Udieresis" unicode="&#xdc;" horiz-adv-x="774" 
d="M602 832c0 -37 -30 -68 -66 -68s-65 30 -65 66c0 37 29 68 65 68c37 0 66 -31 66 -66zM383 832c0 -37 -29 -68 -66 -68c-35 0 -65 30 -65 66c0 37 30 68 65 68c37 0 66 -31 66 -66zM775 683v-7c-21 -1 -71 -7 -92 -22c-25 -17 -32 -62 -32 -133v-309
c0 -163 -137 -228 -255 -228c-180 0 -274 95 -274 218v412c0 22 -8 38 -31 50c-18 9 -54 11 -69 12v7h336v-7c-18 -1 -54 -6 -71 -11c-25 -8 -31 -27 -31 -49v-412c0 -101 37 -182 171 -182c135 0 208 86 208 194v301c0 78 -12 119 -34 135c-26 18 -77 23 -97 24v7h271z" />
    <glyph glyph-name="aacute" unicode="&#xe1;" horiz-adv-x="496" 
d="M499 125h11c-4 -89 -39 -136 -113 -136c-55 0 -83 24 -101 66h-3c-34 -39 -77 -68 -145 -68c-69 0 -119 44 -119 109c0 84 48 109 98 128c59 22 133 38 167 58v69c0 25 -1 109 -72 109c-33 0 -51 -14 -59 -24c1 -22 16 -57 16 -83c0 -22 -26 -50 -69 -50
c-41 0 -57 31 -57 60c0 61 95 107 175 107c103 0 183 -16 183 -149c0 -90 -6 -203 -6 -236c0 -15 13 -49 42 -49c32 0 50 42 52 89zM291 71l4 196c-90 -31 -144 -63 -144 -150c0 -59 24 -87 60 -87s61 14 80 41zM366 698c0 -30 -17 -44 -50 -66c-31 -22 -76 -49 -151 -104
l-5 6c44 77 66 120 89 157c20 34 39 51 68 51c30 0 49 -22 49 -44z" />
    <glyph glyph-name="agrave" unicode="&#xe0;" horiz-adv-x="496" 
d="M499 125h11c-4 -89 -39 -136 -113 -136c-55 0 -83 24 -101 66h-3c-34 -39 -77 -68 -145 -68c-69 0 -119 44 -119 109c0 84 48 109 98 128c59 22 133 38 167 58v69c0 25 -1 109 -72 109c-33 0 -51 -14 -59 -24c1 -22 16 -57 16 -83c0 -22 -26 -50 -69 -50
c-41 0 -57 31 -57 60c0 61 95 107 175 107c103 0 183 -16 183 -149c0 -90 -6 -203 -6 -236c0 -15 13 -49 42 -49c32 0 50 42 52 89zM291 71l4 196c-90 -31 -144 -63 -144 -150c0 -59 24 -87 60 -87s61 14 80 41zM332 533l-5 -5c-75 55 -120 82 -152 104s-49 36 -49 66
c0 22 19 44 49 44c29 0 47 -16 68 -51c23 -37 46 -83 89 -158z" />
    <glyph glyph-name="acircumflex" unicode="&#xe2;" horiz-adv-x="496" 
d="M499 125h11c-4 -89 -39 -136 -113 -136c-55 0 -83 24 -101 66h-3c-34 -39 -77 -68 -145 -68c-69 0 -119 44 -119 109c0 84 48 109 98 128c59 22 133 38 167 58v69c0 25 -1 109 -72 109c-33 0 -51 -14 -59 -24c1 -22 16 -57 16 -83c0 -22 -26 -50 -69 -50
c-41 0 -57 31 -57 60c0 61 95 107 175 107c103 0 183 -16 183 -149c0 -90 -6 -203 -6 -236c0 -15 13 -49 42 -49c32 0 50 42 52 89zM291 71l4 196c-90 -31 -144 -63 -144 -150c0 -59 24 -87 60 -87s61 14 80 41zM401 544l-9 -7l-153 122l-152 -122l-8 7
c48 74 87 137 112 175c11 17 18 21 50 21c31 0 37 -5 47 -19c24 -35 65 -101 113 -177z" />
    <glyph glyph-name="adieresis" unicode="&#xe4;" horiz-adv-x="496" 
d="M499 125h11c-4 -89 -39 -136 -113 -136c-55 0 -83 24 -101 66h-3c-34 -39 -77 -68 -145 -68c-69 0 -119 44 -119 109c0 84 48 109 98 128c59 22 133 38 167 58v69c0 25 -1 109 -72 109c-33 0 -51 -14 -59 -24c1 -22 16 -57 16 -83c0 -22 -26 -50 -69 -50
c-41 0 -57 31 -57 60c0 61 95 107 175 107c103 0 183 -16 183 -149c0 -90 -6 -203 -6 -236c0 -15 13 -49 42 -49c32 0 50 42 52 89zM291 71l4 196c-90 -31 -144 -63 -144 -150c0 -59 24 -87 60 -87s61 14 80 41zM414 622c0 -37 -30 -68 -66 -68s-65 30 -65 66
c0 37 29 68 65 68c37 0 66 -31 66 -66zM195 622c0 -37 -29 -68 -66 -68c-35 0 -65 30 -65 66c0 37 30 68 65 68c37 0 66 -31 66 -66z" />
    <glyph glyph-name="atilde" unicode="&#xe3;" horiz-adv-x="496" 
d="M499 125h11c-4 -89 -39 -136 -113 -136c-55 0 -83 24 -101 66h-3c-34 -39 -77 -68 -145 -68c-69 0 -119 44 -119 109c0 84 48 109 98 128c59 22 133 38 167 58v69c0 25 -1 109 -72 109c-33 0 -51 -14 -59 -24c1 -22 16 -57 16 -83c0 -22 -26 -50 -69 -50
c-41 0 -57 31 -57 60c0 61 95 107 175 107c103 0 183 -16 183 -149c0 -90 -6 -203 -6 -236c0 -15 13 -49 42 -49c32 0 50 42 52 89zM291 71l4 196c-90 -31 -144 -63 -144 -150c0 -59 24 -87 60 -87s61 14 80 41zM432 700l11 -3c-14 -50 -62 -133 -133 -133
c-76 0 -109 54 -163 54c-36 0 -62 -19 -86 -64l-11 4c17 48 61 132 130 132c74 0 114 -55 166 -55c40 0 67 21 86 65z" />
    <glyph glyph-name="aring" unicode="&#xe5;" horiz-adv-x="496" 
d="M499 125h11c-4 -89 -39 -136 -113 -136c-55 0 -83 24 -101 66h-3c-34 -39 -77 -68 -145 -68c-69 0 -119 44 -119 109c0 84 48 109 98 128c59 22 133 38 167 58v69c0 25 -1 109 -72 109c-33 0 -51 -14 -59 -24c1 -22 16 -57 16 -83c0 -22 -26 -50 -69 -50
c-41 0 -57 31 -57 60c0 61 95 107 175 107c103 0 183 -16 183 -149c0 -90 -6 -203 -6 -236c0 -15 13 -49 42 -49c32 0 50 42 52 89zM291 71l4 196c-90 -31 -144 -63 -144 -150c0 -59 24 -87 60 -87s61 14 80 41zM368 630c0 -59 -47 -102 -120 -102s-120 41 -120 102
s54 102 120 102c69 0 120 -40 120 -102zM307 630c0 43 -15 91 -59 91c-43 0 -59 -45 -59 -91c0 -43 15 -90 59 -90s59 46 59 90z" />
    <glyph glyph-name="ccedilla" unicode="&#xe7;" horiz-adv-x="440" 
d="M128 -233v14c63 0 136 5 136 64c0 33 -33 40 -73 40v108c-111 24 -165 118 -165 237c0 125 85 240 231 240c108 0 161 -53 161 -117c0 -36 -25 -63 -66 -63c-32 0 -63 19 -63 59c0 32 23 62 25 79c-4 19 -27 31 -57 31c-60 0 -105 -71 -105 -220c0 -131 51 -210 130 -210
c70 0 118 33 148 93l10 -6c-34 -72 -105 -129 -189 -129c-16 0 -32 1 -46 3v-41c77 1 139 -17 139 -82c0 -87 -98 -100 -216 -100z" />
    <glyph glyph-name="eacute" unicode="&#xe9;" horiz-adv-x="462" 
d="M373 698c0 -30 -17 -44 -50 -66c-31 -22 -76 -49 -151 -104l-5 6c44 77 66 120 89 157c20 34 39 51 68 51c30 0 49 -22 49 -44zM443 121l9 -6c-36 -73 -106 -128 -197 -128c-157 0 -229 110 -229 244c0 124 79 239 220 239c144 0 196 -92 196 -192v-8h-292v-22
c0 -124 36 -222 143 -222c70 0 113 30 150 95zM150 281l169 2c0 79 -9 176 -77 176c-55 0 -89 -75 -92 -178z" />
    <glyph glyph-name="egrave" unicode="&#xe8;" horiz-adv-x="462" 
d="M443 121l9 -6c-36 -73 -106 -128 -197 -128c-157 0 -229 110 -229 244c0 124 79 239 220 239c144 0 196 -92 196 -192v-8h-292v-22c0 -124 36 -222 143 -222c70 0 113 30 150 95zM150 281l169 2c0 79 -9 176 -77 176c-55 0 -89 -75 -92 -178zM328 533l-5 -5
c-75 55 -120 82 -152 104s-49 36 -49 66c0 22 19 44 49 44c29 0 47 -16 68 -51c23 -37 46 -83 89 -158z" />
    <glyph glyph-name="ecircumflex" unicode="&#xea;" horiz-adv-x="462" 
d="M404 544l-9 -7l-153 122l-152 -122l-8 7c48 74 87 137 112 175c11 17 18 21 50 21c31 0 37 -5 47 -19c24 -35 65 -101 113 -177zM443 121l9 -6c-36 -73 -106 -128 -197 -128c-157 0 -229 110 -229 244c0 124 79 239 220 239c144 0 196 -92 196 -192v-8h-292v-22
c0 -124 36 -222 143 -222c70 0 113 30 150 95zM150 281l169 2c0 79 -9 176 -77 176c-55 0 -89 -75 -92 -178z" />
    <glyph glyph-name="edieresis" unicode="&#xeb;" horiz-adv-x="462" 
d="M419 622c0 -37 -30 -68 -66 -68s-65 30 -65 66c0 37 29 68 65 68c37 0 66 -31 66 -66zM200 622c0 -37 -29 -68 -66 -68c-35 0 -65 30 -65 66c0 37 30 68 65 68c37 0 66 -31 66 -66zM443 121l9 -6c-36 -73 -106 -128 -197 -128c-157 0 -229 110 -229 244
c0 124 79 239 220 239c144 0 196 -92 196 -192v-8h-292v-22c0 -124 36 -222 143 -222c70 0 113 30 150 95zM150 281l169 2c0 79 -9 176 -77 176c-55 0 -89 -75 -92 -178z" />
    <glyph glyph-name="iacute" unicode="&#xed;" horiz-adv-x="288" 
d="M271 698c0 -30 -17 -44 -50 -66c-31 -22 -76 -49 -151 -104l-5 6c44 77 66 120 89 157c20 34 39 51 68 51c30 0 49 -22 49 -44zM24 0v7c18 1 30 2 44 7c18 6 26 23 26 44v323c-1 21 -10 41 -26 52c-12 8 -41 12 -59 13v6l196 11l4 -4v-399c0 -21 7 -36 25 -45
c15 -7 32 -7 48 -8v-7h-258z" />
    <glyph glyph-name="igrave" unicode="&#xec;" horiz-adv-x="291" 
d="M24 0v7c18 1 30 2 44 7c18 6 26 23 26 44v323c-1 21 -10 41 -26 52c-12 8 -41 12 -59 13v6l196 11l4 -4v-399c0 -21 7 -36 25 -45c15 -7 32 -7 48 -8v-7h-258zM214 533l-5 -5c-75 55 -120 82 -152 104s-49 36 -49 66c0 22 19 44 49 44c29 0 47 -16 68 -51
c23 -37 46 -83 89 -158z" />
    <glyph glyph-name="icircumflex" unicode="&#xee;" horiz-adv-x="291" 
d="M2 531l-7 5c39 71 69 140 92 182c8 15 21 21 49 21c26 0 40 -5 47 -19c21 -38 51 -107 92 -184l-7 -5l-133 123zM24 0v7c18 1 30 2 44 7c18 6 26 23 26 44v323c-1 21 -10 41 -26 52c-12 8 -41 12 -59 13v6l196 11l4 -4v-399c0 -21 7 -36 25 -45c15 -7 32 -7 48 -8v-7
h-258z" />
    <glyph glyph-name="idieresis" unicode="&#xef;" horiz-adv-x="291" 
d="M35 554c-35 0 -63 29 -63 64c0 36 28 66 63 66c36 0 64 -30 64 -64c0 -36 -28 -66 -64 -66zM233 554c-35 0 -64 29 -64 64c0 36 29 66 64 66s64 -30 64 -64c0 -36 -29 -66 -64 -66zM24 0v7c18 1 30 2 44 7c18 6 26 23 26 44v323c-1 21 -10 41 -26 52c-12 8 -41 12 -59 13
v6l196 11l4 -4v-399c0 -21 7 -36 25 -45c15 -7 32 -7 48 -8v-7h-258z" />
    <glyph glyph-name="ntilde" unicode="&#xf1;" horiz-adv-x="585" 
d="M573 7v-7h-249v7c16 1 31 3 43 7c17 6 22 23 22 45v262c0 69 -35 100 -74 100c-60 0 -96 -34 -107 -56v-304c0 -22 6 -38 22 -45c14 -7 28 -8 44 -9v-7h-250v7c17 1 30 3 43 7c19 6 26 20 26 42v323c-1 23 -10 43 -25 53c-12 8 -33 13 -50 14v6l186 11l4 -4v-71h3
c37 37 73 82 158 82c95 0 136 -63 136 -158v-252c0 -22 6 -37 24 -45c14 -6 26 -7 44 -8zM480 700l11 -3c-14 -50 -62 -133 -133 -133c-76 0 -109 54 -163 54c-36 0 -62 -19 -86 -64l-11 4c17 48 61 132 130 132c74 0 114 -55 166 -55c40 0 67 21 86 65z" />
    <glyph glyph-name="oacute" unicode="&#xf3;" horiz-adv-x="528" 
d="M387 698c0 -30 -17 -44 -50 -66c-31 -22 -76 -49 -151 -104l-5 6c44 77 66 120 89 157c20 34 39 51 68 51c30 0 49 -22 49 -44zM503 232c0 -135 -85 -246 -243 -246c-127 0 -235 91 -235 241c0 143 95 243 241 243c147 0 237 -101 237 -238zM375 232
c0 115 -23 227 -109 227c-93 0 -112 -119 -112 -225c0 -125 23 -238 111 -238c84 0 110 110 110 236z" />
    <glyph glyph-name="ograve" unicode="&#xf2;" horiz-adv-x="528" 
d="M503 232c0 -135 -85 -246 -243 -246c-127 0 -235 91 -235 241c0 143 95 243 241 243c147 0 237 -101 237 -238zM375 232c0 115 -23 227 -109 227c-93 0 -112 -119 -112 -225c0 -125 23 -238 111 -238c84 0 110 110 110 236zM346 533l-5 -5c-75 55 -120 82 -152 104
s-49 36 -49 66c0 22 19 44 49 44c29 0 47 -16 68 -51c23 -37 46 -83 89 -158z" />
    <glyph glyph-name="ocircumflex" unicode="&#xf4;" horiz-adv-x="528" 
d="M424 544l-9 -7l-153 122l-152 -122l-8 7c48 74 87 137 112 175c11 17 18 21 50 21c31 0 37 -5 47 -19c24 -35 65 -101 113 -177zM503 232c0 -135 -85 -246 -243 -246c-127 0 -235 91 -235 241c0 143 95 243 241 243c147 0 237 -101 237 -238zM375 232
c0 115 -23 227 -109 227c-93 0 -112 -119 -112 -225c0 -125 23 -238 111 -238c84 0 110 110 110 236z" />
    <glyph glyph-name="odieresis" unicode="&#xf6;" horiz-adv-x="528" 
d="M438 622c0 -37 -30 -68 -66 -68s-65 30 -65 66c0 37 29 68 65 68c37 0 66 -31 66 -66zM219 622c0 -37 -29 -68 -66 -68c-35 0 -65 30 -65 66c0 37 30 68 65 68c37 0 66 -31 66 -66zM503 232c0 -135 -85 -246 -243 -246c-127 0 -235 91 -235 241c0 143 95 243 241 243
c147 0 237 -101 237 -238zM375 232c0 115 -23 227 -109 227c-93 0 -112 -119 -112 -225c0 -125 23 -238 111 -238c84 0 110 110 110 236z" />
    <glyph glyph-name="otilde" unicode="&#xf5;" horiz-adv-x="528" 
d="M503 232c0 -135 -85 -246 -243 -246c-127 0 -235 91 -235 241c0 143 95 243 241 243c147 0 237 -101 237 -238zM375 232c0 115 -23 227 -109 227c-93 0 -112 -119 -112 -225c0 -125 23 -238 111 -238c84 0 110 110 110 236zM449 700l11 -3c-14 -50 -62 -133 -133 -133
c-76 0 -109 54 -163 54c-36 0 -62 -19 -86 -64l-11 4c17 48 61 132 130 132c74 0 114 -55 166 -55c40 0 67 21 86 65z" />
    <glyph glyph-name="uacute" unicode="&#xfa;" horiz-adv-x="569" 
d="M409 698c0 -30 -17 -44 -50 -66c-31 -22 -76 -49 -151 -104l-5 6c44 77 66 120 89 157c20 34 39 51 68 51c30 0 49 -22 49 -44zM559 15v-6l-182 -12l-7 7v62h-3c-36 -38 -73 -78 -158 -78c-92 0 -129 69 -129 163v230c-1 21 -9 41 -26 51c-12 7 -32 12 -50 13v6l187 12
l5 -6v-329c0 -68 30 -100 69 -100c63 0 93 40 104 60v295c-1 21 -8 40 -24 50c-11 7 -37 10 -62 11v7l196 12l5 -6v-381c1 -22 8 -39 24 -49c12 -8 34 -11 51 -12z" />
    <glyph glyph-name="ugrave" unicode="&#xf9;" horiz-adv-x="569" 
d="M559 15v-6l-182 -12l-7 7v62h-3c-36 -38 -73 -78 -158 -78c-92 0 -129 69 -129 163v230c-1 21 -9 41 -26 51c-12 7 -32 12 -50 13v6l187 12l5 -6v-329c0 -68 30 -100 69 -100c63 0 93 40 104 60v295c-1 21 -8 40 -24 50c-11 7 -37 10 -62 11v7l196 12l5 -6v-381
c1 -22 8 -39 24 -49c12 -8 34 -11 51 -12zM358 533l-5 -5c-75 55 -120 82 -152 104s-49 36 -49 66c0 22 19 44 49 44c29 0 47 -16 68 -51c23 -37 46 -83 89 -158z" />
    <glyph glyph-name="ucircumflex" unicode="&#xfb;" horiz-adv-x="569" 
d="M438 544l-9 -7l-153 122l-152 -122l-8 7c48 74 87 137 112 175c11 17 18 21 50 21c31 0 37 -5 47 -19c24 -35 65 -101 113 -177zM559 15v-6l-182 -12l-7 7v62h-3c-36 -38 -73 -78 -158 -78c-92 0 -129 69 -129 163v230c-1 21 -9 41 -26 51c-12 7 -32 12 -50 13v6l187 12
l5 -6v-329c0 -68 30 -100 69 -100c63 0 93 40 104 60v295c-1 21 -8 40 -24 50c-11 7 -37 10 -62 11v7l196 12l5 -6v-381c1 -22 8 -39 24 -49c12 -8 34 -11 51 -12z" />
    <glyph glyph-name="udieresis" unicode="&#xfc;" horiz-adv-x="569" 
d="M449 622c0 -37 -30 -68 -66 -68s-65 30 -65 66c0 37 29 68 65 68c37 0 66 -31 66 -66zM230 622c0 -37 -29 -68 -66 -68c-35 0 -65 30 -65 66c0 37 30 68 65 68c37 0 66 -31 66 -66zM559 15v-6l-182 -12l-7 7v62h-3c-36 -38 -73 -78 -158 -78c-92 0 -129 69 -129 163v230
c-1 21 -9 41 -26 51c-12 7 -32 12 -50 13v6l187 12l5 -6v-329c0 -68 30 -100 69 -100c63 0 93 40 104 60v295c-1 21 -8 40 -24 50c-11 7 -37 10 -62 11v7l196 12l5 -6v-381c1 -22 8 -39 24 -49c12 -8 34 -11 51 -12z" />
    <glyph glyph-name="dagger" unicode="&#x2020;" horiz-adv-x="418" 
d="M205 98c-5 114 -20 280 -30 391c-1 17 -5 31 -16 31c-7 0 -15 -10 -24 -22c-13 -15 -29 -38 -52 -38c-28 0 -49 18 -49 49c0 18 13 34 33 34c16 0 30 -14 35 -37c15 4 39 24 60 24c14 0 31 -4 41 -16c-5 46 -34 103 -34 139c0 24 12 47 40 47c27 0 38 -23 38 -47
c0 -36 -28 -92 -34 -139c12 11 27 16 42 16c20 0 45 -19 60 -24c5 23 21 37 39 37c19 0 30 -16 30 -34c0 -31 -22 -49 -51 -49c-22 0 -37 22 -50 38c-9 11 -17 22 -26 22c-11 0 -14 -9 -15 -31c-10 -110 -25 -286 -30 -391h-7z" />
    <glyph glyph-name="degree" unicode="&#xb0;" horiz-adv-x="384" 
d="M190 414c-83 0 -151 50 -151 145c0 88 74 151 151 151c83 0 155 -47 155 -150c0 -82 -72 -146 -155 -146zM193 422c47 0 78 63 78 136c0 77 -24 143 -80 143s-79 -70 -79 -138c0 -71 23 -141 81 -141z" />
    <glyph glyph-name="cent" unicode="&#xa2;" horiz-adv-x="475" 
d="M161 -113l-15 3l43 182c-92 30 -145 113 -145 231c0 123 87 238 229 238c9 0 18 -1 25 -2l31 131l16 -3l-30 -129c73 -13 118 -59 118 -111c0 -36 -19 -61 -55 -61c-25 0 -55 15 -55 53c0 43 17 58 17 77c-3 14 -15 23 -28 30l-93 -391c18 -20 48 -31 77 -31
c65 0 108 21 145 85l8 -5c-35 -77 -101 -123 -183 -123c-20 0 -44 3 -62 7zM207 150l90 380c-7 2 -14 2 -21 2c-61 0 -117 -72 -117 -221c0 -66 17 -126 48 -161z" />
    <glyph glyph-name="sterling" unicode="&#xa3;" horiz-adv-x="738" 
d="M61 -98c-83 0 -117 38 -117 88c0 64 84 113 179 113c42 0 93 -10 140 -23c5 31 3 67 1 105h-171v14h170c-2 30 -5 67 -5 91h-159v15h159c3 235 119 393 290 393c138 0 201 -90 201 -168c0 -96 -67 -162 -169 -162c-75 0 -116 50 -116 120c0 29 7 55 18 83l8 -2
c-11 -26 -17 -52 -17 -72c0 -66 43 -105 100 -105c64 0 98 48 98 133c0 88 -36 165 -120 165c-105 0 -161 -88 -166 -297c0 -30 -2 -65 -5 -88h161v-15h-163c-5 -29 -16 -70 -26 -91h181v-14h-186c-15 -40 -38 -88 -58 -114c83 -29 160 -75 239 -75c109 0 132 80 143 147
l9 -2c-14 -109 -65 -224 -233 -224c-70 0 -141 38 -208 71c-39 -47 -110 -86 -178 -86zM60 -86c62 0 125 32 167 80c-65 30 -122 46 -180 46c-52 0 -85 -24 -85 -61c0 -34 32 -65 98 -65z" />
    <glyph glyph-name="section" unicode="&#xa7;" horiz-adv-x="532" 
d="M235 -227c-89 0 -130 74 -130 111c0 46 23 78 66 78c31 0 55 -25 55 -57c0 -40 -39 -50 -39 -75c0 -27 22 -49 53 -49c50 0 83 47 83 112c0 48 -25 83 -64 131c-40 51 -75 83 -130 149c-49 59 -72 98 -72 156c0 77 67 123 131 135c-23 33 -41 77 -41 126
c0 78 67 148 163 148c88 0 124 -73 124 -110c0 -46 -23 -79 -67 -79c-31 0 -54 24 -54 57c0 41 48 51 48 74c0 27 -21 50 -61 50c-46 0 -84 -43 -84 -107c0 -49 25 -81 66 -132c40 -51 72 -83 128 -149c51 -60 74 -100 74 -156c0 -79 -68 -118 -135 -132
c26 -34 46 -81 46 -132c0 -78 -65 -149 -160 -149zM343 63c45 13 68 42 68 88c0 33 -22 73 -47 103c-64 76 -131 150 -170 202c-38 -11 -68 -38 -68 -91c0 -30 26 -75 51 -105c61 -74 127 -144 166 -197z" />
    <glyph glyph-name="paragraph" unicode="&#xb6;" horiz-adv-x="617" 
d="M314 -125v447h-30c-178 0 -225 98 -225 177c0 74 45 184 198 184h339v-16h-142v-792h-20v792h-100v-792h-20z" />
    <glyph glyph-name="germandbls" unicode="&#xdf;" horiz-adv-x="606" 
d="M414 -14c-99 0 -142 48 -142 103c0 36 17 68 55 68c35 0 50 -24 50 -53c0 -27 -21 -43 -21 -62c0 -20 21 -46 62 -46c52 0 83 45 83 92c0 43 -15 75 -100 131c-64 39 -109 79 -109 136s43 81 82 130c19 24 30 59 30 106c0 93 -35 146 -92 146c-71 0 -100 -61 -103 -214
v-523h-185v7c18 1 29 2 43 7c19 6 27 23 27 45v380h-97v16h97v26c0 83 22 152 67 201c41 44 98 65 166 65c89 0 168 -48 168 -130c0 -62 -31 -98 -68 -121c-39 -26 -76 -37 -76 -65s32 -56 122 -119c82 -55 109 -93 109 -167c0 -91 -72 -159 -168 -159z" />
    <glyph glyph-name="dotlessi" unicode="&#x131;" horiz-adv-x="291" 
d="M24 0v7c18 1 30 2 44 7c18 6 26 23 26 44v323c-1 21 -10 41 -26 52c-12 8 -41 12 -59 13v6l196 11l4 -4v-399c0 -21 7 -36 25 -45c15 -7 32 -7 48 -8v-7h-258z" />
    <glyph glyph-name="AE" unicode="&#xc6;" horiz-adv-x="989" 
d="M-30 0v7c19 1 50 8 69 19c28 14 58 58 85 104c23 37 259 444 309 535c-20 7 -83 9 -100 10v8h590v-166h-10c-13 45 -77 144 -124 150c-24 3 -63 5 -95 5h-97v-312h84c55 0 73 18 86 31c17 17 38 75 42 101h9v-281h-9c-3 30 -28 91 -42 106s-33 31 -86 31h-84v-248
c0 -78 16 -88 113 -88c63 0 130 -1 154 23c35 36 88 132 102 165h9l-13 -200h-604v7c24 1 60 6 74 10c24 9 31 24 31 48v219h-230l-94 -167c-16 -30 -19 -47 -19 -62c0 -34 69 -45 116 -47v-8h-266zM242 300h221v364h-13c-10 -17 -125 -216 -208 -364z" />
    <glyph glyph-name="Oslash" unicode="&#xd8;" horiz-adv-x="768" 
d="M48 -33l-12 10l96 104c-63 61 -102 146 -102 253c0 114 38 204 105 268s153 97 249 97c89 0 171 -27 239 -86l90 97l12 -9l-91 -98c65 -63 103 -153 103 -257c0 -107 -34 -202 -108 -270c-63 -60 -145 -92 -249 -92c-89 0 -172 30 -236 87zM384 -4c141 0 202 150 202 347
c0 64 -7 127 -25 181l-350 -380c31 -90 87 -148 173 -148zM206 161l350 380c-29 86 -83 146 -172 146c-129 0 -202 -130 -202 -348c0 -66 7 -127 24 -178z" />
    <glyph glyph-name="lessequal" unicode="&#x2264;" horiz-adv-x="562" 
d="M499 80l-442 206v33l442 206v-43l-388 -180l388 -180v-42zM54 0v38h454v-38h-454z" />
    <glyph glyph-name="greaterequal" unicode="&#x2265;" horiz-adv-x="562" 
d="M62 80v42l389 180l-389 180v43l442 -206v-33zM54 0v38h454v-38h-454z" />
    <glyph glyph-name="yen" unicode="&#xa5;" horiz-adv-x="574" 
d="M119 0v7c18 1 62 5 76 10c18 6 31 25 31 47v91h-154v15h154v80h-154v15h152c-24 51 -109 215 -133 257c-17 32 -35 52 -56 64c-15 9 -35 13 -52 14v7h296v-7c-30 -2 -82 -8 -82 -27c0 -15 71 -152 144 -285c69 118 151 254 151 274c0 26 -54 35 -93 38v7h199v-7
c-32 -4 -63 -25 -81 -51c-42 -62 -119 -190 -172 -284h160v-15h-161v-80h161v-15h-161v-86c0 -21 11 -40 29 -48c15 -7 54 -13 72 -14v-7h-326z" />
    <glyph glyph-name="mu" unicode="&#xb5;" horiz-adv-x="586" 
d="M96 -226c-23 0 -44 20 -44 51c0 47 19 102 23 134s5 69 5 104v396h115v-324c0 -66 34 -102 77 -102c59 0 86 35 97 54v372h115v-366c0 -28 15 -52 43 -52c36 0 52 40 55 78h9c-6 -94 -45 -128 -110 -128c-58 0 -94 28 -110 77h-3c-40 -50 -83 -78 -144 -78
c-59 0 -99 25 -126 72h-2v-60c0 -64 45 -122 45 -174c0 -36 -22 -54 -45 -54z" />
    <glyph glyph-name="mu" unicode="&#x3bc;" horiz-adv-x="586" 
d="M96 -226c-23 0 -44 20 -44 51c0 47 19 102 23 134s5 69 5 104v396h115v-324c0 -66 34 -102 77 -102c59 0 86 35 97 54v372h115v-366c0 -28 15 -52 43 -52c36 0 52 40 55 78h9c-6 -94 -45 -128 -110 -128c-58 0 -94 28 -110 77h-3c-40 -50 -83 -78 -144 -78
c-59 0 -99 25 -126 72h-2v-60c0 -64 45 -122 45 -174c0 -36 -22 -54 -45 -54z" />
    <glyph glyph-name="ordfeminine" unicode="&#xaa;" horiz-adv-x="359" 
d="M123 332c-51 0 -77 26 -77 65c0 48 28 65 57 77c33 13 85 22 106 33v40c0 21 -5 64 -44 64c-18 0 -28 -8 -33 -13c0 -10 8 -33 8 -49c0 -13 -12 -32 -40 -32c-26 0 -37 19 -37 39c0 37 60 64 106 64c57 0 114 -9 114 -88c0 -53 -4 -117 -4 -136c0 -10 5 -30 25 -30
c19 0 25 27 26 50h9c-3 -57 -26 -83 -68 -83c-35 0 -51 15 -60 41c-21 -24 -51 -42 -88 -42zM161 360c22 0 35 9 45 22l3 115c-48 -17 -85 -38 -85 -87c0 -33 16 -50 37 -50zM51 238v25h267v-25h-267z" />
    <glyph glyph-name="ordmasculine" unicode="&#xba;" horiz-adv-x="367" 
d="M181 329c-72 0 -144 51 -144 146c0 89 66 145 147 145c84 0 146 -56 146 -143c0 -86 -60 -148 -149 -148zM184 338c51 0 64 71 64 139c0 63 -13 134 -64 134c-53 0 -65 -76 -65 -133c0 -67 13 -140 65 -140zM50 238v25h267v-25h-267z" />
    <glyph glyph-name="ae" unicode="&#xe6;" horiz-adv-x="721" 
d="M148 -13c-69 0 -119 44 -119 109c0 84 48 109 98 128c59 22 133 38 167 58v69c0 25 -1 109 -72 109c-33 0 -51 -14 -59 -24c1 -22 16 -57 16 -83c0 -22 -26 -50 -69 -50c-41 0 -57 31 -57 60c0 61 95 107 175 107c61 0 111 -10 144 -50c28 24 72 50 133 50
c144 0 195 -92 195 -192v-8h-291v-22c0 -124 36 -222 142 -222c71 0 113 30 150 95l10 -6c-36 -73 -106 -128 -197 -128c-104 0 -162 49 -194 100c-48 -73 -108 -100 -172 -100zM211 30c36 0 61 12 80 39l4 198c-90 -31 -144 -63 -144 -150c0 -59 24 -87 60 -87zM409 281
l168 2c0 79 -8 176 -76 176c-55 0 -89 -75 -92 -178z" />
    <glyph glyph-name="oslash" unicode="&#xf8;" horiz-adv-x="528" 
d="M50 -25l-11 9l57 65c-43 41 -71 102 -71 178c0 143 95 243 241 243c64 0 118 -20 158 -54l68 77l10 -10l-68 -76c44 -42 69 -104 69 -175c0 -135 -85 -246 -243 -246c-58 0 -111 19 -153 53zM265 -4c84 0 110 110 110 236c0 35 -3 73 -9 104l-200 -235
c14 -56 44 -105 99 -105zM163 118l200 235c-13 58 -43 106 -97 106c-93 0 -112 -119 -112 -225c0 -40 2 -82 9 -116z" />
    <glyph glyph-name="questiondown" unicode="&#xbf;" horiz-adv-x="492" 
d="M60 186c0 121 94 208 242 218l6 90h11l1 -186c-92 -11 -148 -50 -148 -151c0 -105 40 -158 109 -158c30 0 62 13 74 28c-7 20 -22 42 -22 79c0 42 34 66 66 66c44 0 64 -30 64 -69c0 -58 -76 -115 -186 -115c-136 0 -217 80 -217 198zM233 624c0 42 34 75 76 75
s76 -33 76 -75s-34 -76 -76 -76s-76 34 -76 76z" />
    <glyph glyph-name="exclamdown" unicode="&#xa1;" horiz-adv-x="324" 
d="M166 472c20 -176 66 -349 66 -409c0 -40 -27 -76 -71 -76s-71 36 -71 76c0 60 45 232 68 409h8zM162 698c41 0 74 -31 74 -73s-33 -75 -74 -75c-42 0 -75 33 -75 75s33 73 75 73z" />
    <glyph glyph-name="logicalnot" unicode="&#xac;" horiz-adv-x="562" 
d="M456 39v213h-414v41h458v-254h-44z" />
    <glyph glyph-name="florin" unicode="&#x192;" horiz-adv-x="529" 
d="M-41 -193c-67 0 -113 30 -113 87c0 33 24 60 56 60c33 0 61 -22 61 -64c0 -25 -20 -51 -37 -62c6 -8 24 -12 35 -12c69 0 114 75 145 223c26 123 35 197 49 281h-106l3 17h105c18 108 47 173 104 228c43 41 99 59 159 59c61 0 123 -37 123 -92c0 -29 -18 -60 -55 -60
c-32 0 -62 19 -62 57c0 22 16 51 30 71c-5 8 -20 15 -37 15c-60 0 -106 -76 -130 -219l-10 -59h124l-3 -17h-124c-19 -112 -28 -179 -45 -253c-17 -76 -52 -148 -111 -198c-51 -41 -100 -62 -161 -62z" />
    <glyph glyph-name="guillemotleft" unicode="&#xab;" horiz-adv-x="558" 
d="M286 18c-66 49 -173 130 -219 163c-18 14 -24 20 -24 43c0 22 5 28 22 41c41 31 157 115 221 164l4 -4l-142 -203l142 -200zM499 18c-65 49 -172 130 -218 163c-19 14 -24 20 -24 43c0 22 5 28 21 41c42 31 159 115 221 164l5 -4l-142 -203l142 -200z" />
    <glyph glyph-name="guillemotright" unicode="&#xbb;" horiz-adv-x="558" 
d="M59 18l-5 4l142 200l-142 203l5 4c62 -49 180 -133 220 -164c17 -13 22 -19 22 -41c0 -23 -5 -29 -24 -43c-46 -33 -153 -114 -218 -163zM272 18l-3 4l141 200l-141 203l3 4c63 -49 180 -133 221 -164c17 -13 22 -19 22 -41c0 -23 -6 -29 -24 -43
c-46 -33 -153 -114 -219 -163z" />
    <glyph glyph-name="nbspace" unicode="&#xa0;" horiz-adv-x="110" 
 />
    <glyph glyph-name="Agrave" unicode="&#xc0;" horiz-adv-x="681" 
d="M710 7v-7h-340v7c35 2 103 9 106 34c1 8 -1 18 -4 24l-69 183h-237c-13 -33 -45 -117 -52 -139c-7 -24 -14 -48 -14 -61c0 -36 86 -39 121 -41v-7h-250v7c18 1 41 4 59 15c24 15 42 44 57 79c54 129 186 449 243 593h35c78 -195 218 -553 247 -624c8 -20 16 -37 40 -50
c17 -9 39 -12 58 -13zM172 264h224l-110 282zM426 730l-5 -5c-75 55 -120 82 -152 104s-49 36 -49 66c0 22 19 44 49 44c29 0 47 -16 68 -51c23 -37 46 -83 89 -158z" />
    <glyph glyph-name="apple" unicode="&#xf8ff;" horiz-adv-x="615" 
d="M377 -2c-40 0 -75 32 -75 75c0 31 18 53 18 94v11l-7 5c-7 -1 -13 -1 -20 -1c-21 0 -40 7 -56 18l-13 -1c-14 -21 -18 -42 -21 -61c-7 -43 -28 -83 -78 -83c-40 0 -77 33 -77 77c0 43 36 75 83 75c17 0 45 -2 74 13l3 14c-6 13 -10 28 -10 43c0 9 1 17 3 25l-5 13
c-9 3 -18 3 -27 3c-28 0 -44 -7 -64 -7c-44 0 -77 35 -77 76s33 77 76 77c36 0 56 -20 67 -42c11 -23 14 -56 38 -81l15 1c18 19 43 30 69 30l11 7c0 53 -34 73 -34 114c0 44 35 73 76 73c44 0 74 -35 74 -76c0 -64 -58 -59 -88 -116l4 -12c23 -12 41 -32 48 -58l12 -6
c55 20 60 70 118 70c40 0 73 -34 73 -77c0 -42 -33 -74 -75 -74c-47 0 -61 41 -116 50l-9 -8c-4 -24 -19 -45 -39 -60l-1 -10c16 -21 35 -31 53 -39c30 -14 55 -38 55 -76c0 -40 -35 -76 -78 -76zM293 208c39 0 67 31 67 70c0 38 -28 68 -67 68c-38 0 -67 -30 -67 -68
c0 -39 29 -70 67 -70z" />
    <glyph glyph-name="Atilde" unicode="&#xc3;" horiz-adv-x="681" 
d="M710 7v-7h-340v7c35 2 103 9 106 34c1 8 -1 18 -4 24l-69 183h-237c-13 -33 -45 -117 -52 -139c-7 -24 -14 -48 -14 -61c0 -36 86 -39 121 -41v-7h-250v7c18 1 41 4 59 15c24 15 42 44 57 79c54 129 186 449 243 593h35c78 -195 218 -553 247 -624c8 -20 16 -37 40 -50
c17 -9 39 -12 58 -13zM172 264h224l-110 282zM530 897l11 -3c-14 -50 -62 -133 -133 -133c-76 0 -109 54 -163 54c-36 0 -62 -19 -86 -64l-11 4c17 48 61 132 130 132c74 0 114 -55 166 -55c40 0 67 21 86 65z" />
    <glyph glyph-name="Otilde" unicode="&#xd5;" horiz-adv-x="768" 
d="M737 346c0 -107 -34 -202 -108 -270c-63 -60 -145 -92 -249 -92c-93 0 -179 33 -244 94s-106 147 -106 256c0 114 38 204 105 268s153 97 249 97c94 0 181 -30 251 -97c63 -60 102 -150 102 -256zM586 343c0 174 -51 344 -202 344c-129 0 -202 -130 -202 -348
c0 -190 60 -343 202 -343c141 0 202 150 202 347zM569 897l11 -3c-14 -50 -62 -133 -133 -133c-76 0 -109 54 -163 54c-36 0 -62 -19 -86 -64l-11 4c17 48 61 132 130 132c74 0 114 -55 166 -55c40 0 67 21 86 65z" />
    <glyph glyph-name="OE" unicode="&#x152;" horiz-adv-x="1050" 
d="M397 0c-164 0 -367 87 -367 341c0 228 179 342 381 342h572v-166h-10c-13 45 -76 144 -124 150c-24 3 -63 5 -94 5h-98v-312h84c56 0 74 18 86 31c18 17 39 75 42 101h10v-281h-10c-3 30 -28 91 -42 106c-13 15 -32 31 -86 31h-84v-248c0 -78 17 -88 113 -88
c64 0 130 -1 154 23c35 36 88 132 103 165h9l-13 -200h-626zM419 10c67 0 84 24 94 52c12 29 11 241 11 287c0 71 2 236 -9 264c-9 40 -40 59 -109 59c-155 0 -226 -129 -226 -329c0 -190 86 -333 239 -333z" />
    <glyph glyph-name="oe" unicode="&#x153;" horiz-adv-x="809" 
d="M260 -14c-127 0 -235 91 -235 241c0 143 95 243 241 243c72 0 131 -26 171 -67c37 40 90 67 156 67c145 0 196 -92 196 -192v-8h-291v-22c0 -124 36 -222 142 -222c70 0 113 30 150 95l9 -6c-36 -73 -105 -128 -196 -128c-75 0 -131 25 -169 66c-39 -42 -98 -67 -174 -67
zM265 -4c84 0 110 110 110 236c0 115 -23 227 -109 227c-93 0 -112 -119 -112 -225c0 -125 23 -238 111 -238zM498 281l168 2c0 79 -9 176 -76 176c-56 0 -89 -75 -92 -178z" />
    <glyph glyph-name="divide" unicode="&#xf7;" horiz-adv-x="562" 
d="M281 58c-31 0 -55 25 -55 56s24 55 55 55s56 -24 56 -55s-25 -56 -56 -56zM281 350c-31 0 -55 24 -55 54c0 32 24 56 55 56s56 -24 56 -56c0 -30 -25 -54 -56 -54zM43 239v41h476v-41h-476z" />
    <glyph glyph-name="e.ordn" horiz-adv-x="390" 
d="M219 278c-115 0 -171 79 -171 174c0 86 61 168 164 168c104 0 148 -70 148 -145v-11h-230c1 -91 34 -151 116 -151c45 0 90 21 114 59l6 -4c-29 -51 -83 -90 -147 -90zM131 473l146 1c0 57 -10 139 -66 139c-55 0 -76 -71 -80 -140z" />
    <glyph glyph-name="ydieresis" unicode="&#xff;" horiz-adv-x="459" 
d="M486 457v-6c-33 -6 -54 -19 -69 -55c-34 -81 -129 -323 -165 -414c-68 -169 -118 -209 -188 -209c-30 0 -81 20 -81 76c0 31 25 65 64 65c27 0 62 -15 62 -58c0 -14 -8 -53 -9 -63c62 10 120 145 137 191c-49 116 -158 343 -191 417c-12 27 -30 43 -68 49v7h244v-9
c-22 -1 -60 -5 -60 -21c0 -2 3 -11 7 -21c16 -42 93 -206 126 -277c27 65 71 180 98 252c4 12 8 26 8 35c0 21 -41 29 -78 35v6h163zM426 622c0 -37 -30 -68 -66 -68s-65 30 -65 66c0 37 29 68 65 68c37 0 66 -31 66 -66zM207 622c0 -37 -29 -68 -66 -68
c-35 0 -65 30 -65 66c0 37 30 68 65 68c37 0 66 -31 66 -66z" />
    <glyph glyph-name="Ydieresis" unicode="&#x178;" horiz-adv-x="657" 
d="M683 683v-7c-17 -2 -36 -7 -48 -14c-27 -15 -42 -33 -60 -62c-47 -73 -97 -161 -150 -257c-29 -54 -32 -76 -32 -130v-144c0 -22 8 -40 30 -50c12 -5 64 -11 81 -12v-7h-357v7c18 1 68 5 81 10c24 9 31 28 31 50v174c0 31 -8 52 -28 90c-36 70 -110 204 -143 260
c-18 30 -38 56 -62 70c-18 10 -41 14 -60 15v7h353v-7c-35 -2 -104 -9 -104 -31c0 -7 18 -47 46 -99c24 -43 85 -158 128 -232c40 68 90 155 125 219c30 55 46 90 46 101c0 30 -66 39 -111 42v7h234zM532 832c0 -37 -30 -68 -66 -68s-65 30 -65 66c0 37 29 68 65 68
c37 0 66 -31 66 -66zM313 832c0 -37 -29 -68 -66 -68c-35 0 -65 30 -65 66c0 37 30 68 65 68c37 0 66 -31 66 -66z" />
    <glyph glyph-name="fraction" unicode="&#x2044;" horiz-adv-x="324" 
d="M-101 -203l-22 12l507 941l24 -11z" />
    <glyph glyph-name="fraction" unicode="&#x2215;" horiz-adv-x="324" 
d="M-101 -203l-22 12l507 941l24 -11z" />
    <glyph glyph-name="Euro" unicode="&#x20ac;" horiz-adv-x="585" 
d="M354 -14c-138 0 -236 89 -253 254h-74v15h73c-2 28 -1 57 0 82h-73v15h76c19 148 122 268 282 268c108 0 176 -56 176 -125c0 -54 -28 -76 -54 -76c-35 0 -55 24 -55 53c0 34 32 52 32 82c-5 31 -47 57 -101 57c-92 0 -143 -100 -154 -259h219v-15h-220
c0 -28 0 -60 1 -82h187v-15h-186c8 -120 60 -217 162 -217c82 0 132 52 167 124l10 -6c-39 -87 -97 -155 -215 -155z" />
    <glyph glyph-name="guilsinglleft" unicode="&#x2039;" horiz-adv-x="344" 
d="M286 18c-66 49 -173 130 -219 163c-18 14 -24 20 -24 43c0 22 5 28 22 41c41 31 157 115 221 164l4 -4l-142 -203l142 -200z" />
    <glyph glyph-name="guilsinglright" unicode="&#x203a;" horiz-adv-x="344" 
d="M59 18l-5 4l142 200l-142 203l5 4c62 -49 180 -133 220 -164c17 -13 22 -19 22 -41c0 -23 -5 -29 -24 -43c-46 -33 -153 -114 -218 -163z" />
    <glyph glyph-name="daggerdbl" unicode="&#x2021;" horiz-adv-x="418" 
d="M210 5c-26 0 -39 22 -39 44c0 35 29 68 34 92c-10 -9 -33 -17 -48 -17c-23 0 -35 7 -47 10c-4 -22 -19 -36 -38 -36c-18 0 -29 17 -29 34c0 22 12 39 38 39c34 0 45 -38 75 -38c13 0 18 16 23 37c4 23 22 120 26 166h7c6 -46 24 -144 28 -166c5 -21 10 -37 23 -37
c30 0 38 38 72 38c27 0 41 -17 41 -39c0 -17 -13 -34 -32 -34c-18 0 -31 13 -36 36c-11 -3 -25 -10 -45 -10c-15 0 -39 9 -50 17c6 -27 35 -57 35 -92c0 -22 -13 -44 -38 -44zM205 367c-5 46 -24 144 -27 166c-5 21 -10 37 -23 37c-30 0 -39 -38 -73 -38
c-26 0 -40 17 -40 39c0 17 13 34 32 34c18 0 31 -13 36 -36c12 3 25 10 46 10c15 0 37 -9 48 -17c-5 27 -34 57 -34 92c0 22 13 44 39 44c25 0 38 -22 38 -44c0 -35 -30 -68 -35 -92c11 9 35 17 50 17c23 0 35 -7 46 -10c5 22 19 36 38 36s29 -17 29 -34
c0 -22 -13 -39 -38 -39c-35 0 -46 38 -75 38c-13 0 -18 -16 -23 -37c-4 -23 -22 -120 -27 -166h-7z" />
    <glyph glyph-name="quotesinglbase" unicode="&#x201a;" horiz-adv-x="199" 
d="M177 20c0 -90 -90 -144 -148 -169l-6 10c53 26 106 79 109 135h-35c-57 0 -74 39 -74 68c0 27 22 65 67 65c65 0 87 -49 87 -109z" />
    <glyph glyph-name="quotedblbase" unicode="&#x201e;" horiz-adv-x="382" 
d="M177 20c0 -90 -90 -144 -148 -169l-6 10c53 26 106 79 109 135h-35c-57 0 -74 39 -74 68c0 27 22 65 67 65c65 0 87 -49 87 -109zM360 20c0 -90 -90 -144 -148 -169l-6 10c53 26 106 79 109 135h-35c-57 0 -74 39 -74 68c0 27 23 65 67 65c65 0 87 -49 87 -109z" />
    <glyph glyph-name="perthousand" unicode="&#x2030;" horiz-adv-x="1250" 
d="M220 293c-90 0 -166 55 -166 160c0 99 83 167 166 167c90 0 172 -49 172 -166c0 -90 -82 -161 -172 -161zM223 303c48 0 80 62 80 149c0 93 -25 159 -82 159s-80 -72 -80 -154c0 -83 22 -154 82 -154zM631 -14c-90 0 -166 55 -166 160c0 97 84 167 166 167
c89 0 172 -49 172 -166c0 -91 -82 -161 -172 -161zM635 -5c45 0 79 65 79 150c0 90 -25 159 -81 159c-58 0 -81 -74 -81 -154c0 -83 22 -155 83 -155zM1023 -14c-90 0 -165 55 -165 160c0 97 83 167 165 167c90 0 172 -49 172 -166c0 -91 -81 -161 -172 -161zM1027 -5
c46 0 80 65 80 150c0 90 -26 159 -82 159c-58 0 -80 -74 -80 -154c0 -83 22 -155 82 -155zM222 -96l-19 10l428 774l21 -10z" />
    <glyph glyph-name="Acircumflex" unicode="&#xc2;" horiz-adv-x="681" 
d="M710 7v-7h-340v7c35 2 103 9 106 34c1 8 -1 18 -4 24l-69 183h-237c-13 -33 -45 -117 -52 -139c-7 -24 -14 -48 -14 -61c0 -36 86 -39 121 -41v-7h-250v7c18 1 41 4 59 15c24 15 42 44 57 79c54 129 186 449 243 593h35c78 -195 218 -553 247 -624c8 -20 16 -37 40 -50
c17 -9 39 -12 58 -13zM172 264h224l-110 282zM502 741l-9 -7l-153 122l-152 -122l-8 7c48 74 87 137 112 175c11 17 18 21 50 21c31 0 37 -5 47 -19c24 -35 65 -101 113 -177z" />
    <glyph glyph-name="Ecircumflex" unicode="&#xca;" horiz-adv-x="661" 
d="M496 741l-9 -7l-153 122l-152 -122l-8 7c48 74 87 137 112 175c11 17 18 21 50 21c31 0 37 -5 47 -19c24 -35 65 -101 113 -177zM634 0h-605v7c23 1 61 6 75 11c24 8 31 25 31 47v548c0 22 -6 41 -31 50c-18 7 -53 12 -75 13v7h565v-166h-10c-13 45 -77 144 -124 150
c-24 3 -63 5 -94 5h-98v-312h84c56 0 74 18 86 31c18 17 38 75 42 101h10v-281h-10c-3 30 -28 91 -42 106c-13 15 -32 31 -86 31h-84v-248c0 -78 17 -88 113 -88c63 0 130 -1 154 23c35 36 88 132 103 165h9z" />
    <glyph glyph-name="Aacute" unicode="&#xc1;" horiz-adv-x="681" 
d="M710 7v-7h-340v7c35 2 103 9 106 34c1 8 -1 18 -4 24l-69 183h-237c-13 -33 -45 -117 -52 -139c-7 -24 -14 -48 -14 -61c0 -36 86 -39 121 -41v-7h-250v7c18 1 41 4 59 15c24 15 42 44 57 79c54 129 186 449 243 593h35c78 -195 218 -553 247 -624c8 -20 16 -37 40 -50
c17 -9 39 -12 58 -13zM172 264h224l-110 282zM454 895c0 -30 -17 -44 -50 -66c-31 -22 -76 -49 -151 -104l-5 6c44 77 66 120 89 157c20 34 39 51 68 51c30 0 49 -22 49 -44z" />
    <glyph glyph-name="Edieresis" unicode="&#xcb;" horiz-adv-x="661" 
d="M508 832c0 -37 -30 -68 -66 -68s-65 30 -65 66c0 37 29 68 65 68c37 0 66 -31 66 -66zM289 832c0 -37 -29 -68 -66 -68c-35 0 -65 30 -65 66c0 37 30 68 65 68c37 0 66 -31 66 -66zM634 0h-605v7c23 1 61 6 75 11c24 8 31 25 31 47v548c0 22 -6 41 -31 50
c-18 7 -53 12 -75 13v7h565v-166h-10c-13 45 -77 144 -124 150c-24 3 -63 5 -94 5h-98v-312h84c56 0 74 18 86 31c18 17 38 75 42 101h10v-281h-10c-3 30 -28 91 -42 106c-13 15 -32 31 -86 31h-84v-248c0 -78 17 -88 113 -88c63 0 130 -1 154 23c35 36 88 132 103 165h9z
" />
    <glyph glyph-name="Egrave" unicode="&#xc8;" horiz-adv-x="661" 
d="M634 0h-605v7c23 1 61 6 75 11c24 8 31 25 31 47v548c0 22 -6 41 -31 50c-18 7 -53 12 -75 13v7h565v-166h-10c-13 45 -77 144 -124 150c-24 3 -63 5 -94 5h-98v-312h84c56 0 74 18 86 31c18 17 38 75 42 101h10v-281h-10c-3 30 -28 91 -42 106c-13 15 -32 31 -86 31h-84
v-248c0 -78 17 -88 113 -88c63 0 130 -1 154 23c35 36 88 132 103 165h9zM431 730l-5 -5c-75 55 -120 82 -152 104s-49 36 -49 66c0 22 19 44 49 44c29 0 47 -16 68 -51c23 -37 46 -83 89 -158z" />
    <glyph glyph-name="Iacute" unicode="&#xcd;" horiz-adv-x="406" 
d="M270 616v-548c0 -22 8 -41 31 -50c12 -5 51 -10 72 -11v-7h-339v7c22 1 59 5 72 10c24 8 31 25 31 47v549c0 22 -7 41 -31 50c-17 6 -51 12 -72 13v7h339v-7c-18 -1 -55 -6 -72 -11c-25 -8 -31 -27 -31 -49zM331 895c0 -30 -17 -44 -50 -66c-31 -22 -76 -49 -151 -104
l-5 6c44 77 66 120 89 157c20 34 39 51 68 51c30 0 49 -22 49 -44z" />
    <glyph glyph-name="Icircumflex" unicode="&#xce;" horiz-adv-x="406" 
d="M270 616v-548c0 -22 8 -41 31 -50c12 -5 51 -10 72 -11v-7h-339v7c22 1 59 5 72 10c24 8 31 25 31 47v549c0 22 -7 41 -31 50c-17 6 -51 12 -72 13v7h339v-7c-18 -1 -55 -6 -72 -11c-25 -8 -31 -27 -31 -49zM364 741l-9 -7l-153 122l-152 -122l-8 7c48 74 87 137 112 175
c11 17 18 21 50 21c31 0 37 -5 47 -19c24 -35 65 -101 113 -177z" />
    <glyph glyph-name="Idieresis" unicode="&#xcf;" horiz-adv-x="406" 
d="M270 616v-548c0 -22 8 -41 31 -50c12 -5 51 -10 72 -11v-7h-339v7c22 1 59 5 72 10c24 8 31 25 31 47v549c0 22 -7 41 -31 50c-17 6 -51 12 -72 13v7h339v-7c-18 -1 -55 -6 -72 -11c-25 -8 -31 -27 -31 -49zM378 832c0 -37 -30 -68 -66 -68s-65 30 -65 66
c0 37 29 68 65 68c37 0 66 -31 66 -66zM159 832c0 -37 -29 -68 -66 -68c-35 0 -65 30 -65 66c0 37 30 68 65 68c37 0 66 -31 66 -66z" />
    <glyph glyph-name="Igrave" unicode="&#xcc;" horiz-adv-x="406" 
d="M270 616v-548c0 -22 8 -41 31 -50c12 -5 51 -10 72 -11v-7h-339v7c22 1 59 5 72 10c24 8 31 25 31 47v549c0 22 -7 41 -31 50c-17 6 -51 12 -72 13v7h339v-7c-18 -1 -55 -6 -72 -11c-25 -8 -31 -27 -31 -49zM286 730l-5 -5c-75 55 -120 82 -152 104s-49 36 -49 66
c0 22 19 44 49 44c29 0 47 -16 68 -51c23 -37 46 -83 89 -158z" />
    <glyph glyph-name="Oacute" unicode="&#xd3;" horiz-adv-x="768" 
d="M494 895c0 -30 -17 -44 -50 -66c-31 -22 -76 -49 -151 -104l-5 6c44 77 66 120 89 157c20 34 39 51 68 51c30 0 49 -22 49 -44zM737 346c0 -107 -34 -202 -108 -270c-63 -60 -145 -92 -249 -92c-93 0 -179 33 -244 94s-106 147 -106 256c0 114 38 204 105 268
s153 97 249 97c94 0 181 -30 251 -97c63 -60 102 -150 102 -256zM586 343c0 174 -51 344 -202 344c-129 0 -202 -130 -202 -348c0 -190 60 -343 202 -343c141 0 202 150 202 347z" />
    <glyph glyph-name="Ocircumflex" unicode="&#xd4;" horiz-adv-x="768" 
d="M545 741l-9 -7l-153 122l-152 -122l-8 7c48 74 87 137 112 175c11 17 18 21 50 21c31 0 37 -5 47 -19c24 -35 65 -101 113 -177zM737 346c0 -107 -34 -202 -108 -270c-63 -60 -145 -92 -249 -92c-93 0 -179 33 -244 94s-106 147 -106 256c0 114 38 204 105 268
s153 97 249 97c94 0 181 -30 251 -97c63 -60 102 -150 102 -256zM586 343c0 174 -51 344 -202 344c-129 0 -202 -130 -202 -348c0 -190 60 -343 202 -343c141 0 202 150 202 347z" />
    <glyph glyph-name="Ograve" unicode="&#xd2;" horiz-adv-x="768" 
d="M737 346c0 -107 -34 -202 -108 -270c-63 -60 -145 -92 -249 -92c-93 0 -179 33 -244 94s-106 147 -106 256c0 114 38 204 105 268s153 97 249 97c94 0 181 -30 251 -97c63 -60 102 -150 102 -256zM586 343c0 174 -51 344 -202 344c-129 0 -202 -130 -202 -348
c0 -190 60 -343 202 -343c141 0 202 150 202 347zM476 730l-5 -5c-75 55 -120 82 -152 104s-49 36 -49 66c0 22 19 44 49 44c29 0 47 -16 68 -51c23 -37 46 -83 89 -158z" />
    <glyph glyph-name="Uacute" unicode="&#xda;" horiz-adv-x="774" 
d="M548 895c0 -30 -17 -44 -50 -66c-31 -22 -76 -49 -151 -104l-5 6c44 77 66 120 89 157c20 34 39 51 68 51c30 0 49 -22 49 -44zM775 683v-7c-21 -1 -71 -7 -92 -22c-25 -17 -32 -62 -32 -133v-309c0 -163 -137 -228 -255 -228c-180 0 -274 95 -274 218v412
c0 22 -8 38 -31 50c-18 9 -54 11 -69 12v7h336v-7c-18 -1 -54 -6 -71 -11c-25 -8 -31 -27 -31 -49v-412c0 -101 37 -182 171 -182c135 0 208 86 208 194v301c0 78 -12 119 -34 135c-26 18 -77 23 -97 24v7h271z" />
    <glyph glyph-name="Ucircumflex" unicode="&#xdb;" horiz-adv-x="774" 
d="M584 741l-9 -7l-153 122l-152 -122l-8 7c48 74 87 137 112 175c11 17 18 21 50 21c31 0 37 -5 47 -19c24 -35 65 -101 113 -177zM775 683v-7c-21 -1 -71 -7 -92 -22c-25 -17 -32 -62 -32 -133v-309c0 -163 -137 -228 -255 -228c-180 0 -274 95 -274 218v412
c0 22 -8 38 -31 50c-18 9 -54 11 -69 12v7h336v-7c-18 -1 -54 -6 -71 -11c-25 -8 -31 -27 -31 -49v-412c0 -101 37 -182 171 -182c135 0 208 86 208 194v301c0 78 -12 119 -34 135c-26 18 -77 23 -97 24v7h271z" />
    <glyph glyph-name="Ugrave" unicode="&#xd9;" horiz-adv-x="774" 
d="M775 683v-7c-21 -1 -71 -7 -92 -22c-25 -17 -32 -62 -32 -133v-309c0 -163 -137 -228 -255 -228c-180 0 -274 95 -274 218v412c0 22 -8 38 -31 50c-18 9 -54 11 -69 12v7h336v-7c-18 -1 -54 -6 -71 -11c-25 -8 -31 -27 -31 -49v-412c0 -101 37 -182 171 -182
c135 0 208 86 208 194v301c0 78 -12 119 -34 135c-26 18 -77 23 -97 24v7h271zM505 730l-5 -5c-75 55 -120 82 -152 104s-49 36 -49 66c0 22 19 44 49 44c29 0 47 -16 68 -51c23 -37 46 -83 89 -158z" />
    <glyph glyph-name="currency" unicode="&#xa4;" horiz-adv-x="585" 
d="M354 -14c-138 0 -236 89 -253 254h-74v15h73c-2 28 -1 57 0 82h-73v15h76c19 148 122 268 282 268c108 0 176 -56 176 -125c0 -54 -28 -76 -54 -76c-35 0 -55 24 -55 53c0 34 32 52 32 82c-5 31 -47 57 -101 57c-92 0 -143 -100 -154 -259h219v-15h-220
c0 -28 0 -60 1 -82h187v-15h-186c8 -120 60 -217 162 -217c82 0 132 52 167 124l10 -6c-39 -87 -97 -155 -215 -155z" />
    <glyph glyph-name="R.salt" horiz-adv-x="722" 
d="M30 676v7h357c125 0 230 -46 230 -156c0 -109 -86 -150 -190 -177v-8c73 -10 134 -45 164 -126c15 -40 38 -125 44 -143c16 -48 42 -55 61 -59c20 -4 42 -6 60 -7v-7h-245c-15 73 -30 130 -57 198c-34 86 -73 139 -144 139h-42v-270c0 -22 7 -40 31 -49
c12 -5 53 -10 71 -11v-7h-340v7c18 1 61 6 74 11c24 9 31 26 31 49v546c0 22 -6 41 -31 50c-18 7 -56 12 -74 13zM472 509c0 109 -58 161 -141 161h-63v-319h41c88 0 163 43 163 158z" />
    <glyph glyph-name="space" unicode=" " horiz-adv-x="218" 
 />
    <glyph glyph-name="fi" horiz-adv-x="582" 
d="M569 7v-7h-246v7c18 1 29 3 40 9c15 7 21 22 21 43v332c-2 21 -7 37 -19 50h-156v-379c0 -19 6 -32 18 -40c12 -9 29 -13 49 -15v-7h-252v7c18 1 30 3 44 7c18 7 26 23 26 45v382h-99v16h99v25c0 82 26 149 72 197c34 36 92 68 170 68c119 0 162 -49 162 -107
c0 -26 -21 -65 -64 -65c-36 0 -63 21 -63 58c0 28 12 49 20 68c0 14 -19 35 -65 35c-63 0 -115 -72 -117 -219v-60h150l136 8l4 -4v-399c0 -22 8 -38 26 -46c14 -6 27 -8 44 -9z" />
    <glyph glyph-name="fl" horiz-adv-x="582" 
d="M570 7v-7h-246v7c18 1 29 3 41 8c14 7 20 23 20 44v522c-15 6 -34 24 -34 52c0 32 22 47 29 59c-6 20 -19 44 -64 44c-56 0 -105 -57 -107 -205v-74h115v-16h-115v-379c0 -20 6 -35 22 -43c11 -6 27 -10 46 -12v-7h-253v7c18 1 30 3 44 7c18 7 26 23 26 45v382h-99v16h99
v25c0 82 23 146 72 198c34 36 88 67 156 67c43 0 74 -9 98 -21l76 20l4 -4v-679c0 -22 8 -37 26 -45c15 -7 26 -10 44 -11z" />
    <glyph glyph-name="ampersand.salt" horiz-adv-x="872" 
d="M364 -18c-169 0 -312 97 -312 231c0 85 55 127 115 157c-36 25 -77 59 -77 130c0 74 65 139 160 139c96 0 147 -61 165 -134l-5 -2c-27 45 -72 74 -128 74c-80 0 -123 -62 -123 -123c0 -31 5 -62 19 -77c32 15 73 31 105 31c44 0 68 -19 68 -47c0 -25 -15 -45 -48 -45
c-53 0 -97 29 -129 48c-11 -9 -40 -36 -40 -86c0 -108 109 -198 313 -195c193 2 303 111 303 221c0 102 -86 151 -166 151c-63 0 -119 -40 -119 -98c0 -62 44 -93 91 -93c27 0 46 8 59 21c-36 8 -77 20 -77 58c0 40 33 54 51 54c29 0 66 -17 66 -65c0 -42 -34 -80 -90 -80
c-65 0 -129 40 -129 125c0 116 100 150 174 150c27 0 88 -5 111 -5c60 0 98 42 98 86c0 50 -38 84 -83 84c-29 0 -47 -20 -47 -31c21 -8 56 -17 56 -48c0 -36 -20 -51 -47 -51c-28 0 -60 18 -60 65c0 39 36 74 95 74c66 0 111 -44 111 -112c0 -92 -66 -139 -180 -137
c54 -19 104 -69 104 -162c0 -127 -124 -308 -404 -308z" />
    <glyph glyph-name="copyrightsound" unicode="&#x2117;" horiz-adv-x="950" 
d="M281 25v7c16 1 51 7 60 10c18 6 23 18 23 30v356c0 12 -5 26 -23 31c-19 5 -47 10 -63 12v7h261c94 0 154 -42 154 -110c0 -92 -81 -143 -184 -143h-51v-153c0 -12 5 -25 21 -30c8 -3 52 -9 73 -10v-7h-271zM476 -181c-242 0 -437 194 -437 432c0 236 194 430 437 430
c241 0 435 -194 435 -430c0 -238 -194 -432 -435 -432zM476 -154c222 0 399 181 399 405c0 221 -177 402 -399 402c-223 0 -401 -181 -401 -402c0 -224 178 -405 401 -405zM458 235h28c80 0 101 72 101 116c0 52 -23 117 -88 117h-41v-233z" />
    <glyph glyph-name="NUL" horiz-adv-x="0" 
 />
    <glyph glyph-name="DEL" horiz-adv-x="0" 
 />
    </font>
</defs>
</svg>
